<?xml version="1.0" encoding="UTF-8"?>
<!-- Generator: Adobe Illustrator 21.1.0, SVG Export Plug-In . SVG Version: 6.00 Build 0)  -->
<svg xmlns="http://www.w3.org/2000/svg" xmlns:xlink="http://www.w3.org/1999/xlink" id="Layer_1" x="0px" y="0px" viewBox="0 0 517.8 383.4" style="enable-background:new 0 0 517.8 383.4;" xml:space="preserve">
<style type="text/css">
	.st0{fill:#FFFFFF;}
	.st1{fill:none;stroke:#E1E1E1;stroke-width:0.85;stroke-miterlimit:10;}
	.st2{fill:#1076A6;}
	.st3{fill:#5BC4EB;}
	.st4{fill:none;stroke:#E1E7E8;stroke-width:0.68;stroke-miterlimit:10;}
	.st5{fill:none;stroke:#C7CECF;stroke-width:0.68;stroke-miterlimit:10;}
	.st6{fill:none;stroke:#C7CECF;stroke-width:0.68;stroke-miterlimit:10;stroke-dasharray:0.68,2.05;}
	.st7{fill:none;stroke:#6BCAEF;stroke-width:1.37;stroke-miterlimit:10;}
	.st8{fill:#6BCAEF;}
	.st9{fill:none;stroke:#FFE198;stroke-width:1.37;stroke-miterlimit:10;}
	.st10{fill:#FFE198;}
	.st11{fill:none;stroke:#DADADA;stroke-width:1.37;stroke-linecap:round;stroke-miterlimit:10;}
	.st12{fill:#4C4C4C;}
	.st13{fill:#707A7C;}
	.st14{fill:#707A7C;stroke:#707A7C;stroke-width:0.17;stroke-miterlimit:10;}
	.st15{fill:none;stroke:#DBE3E3;stroke-width:0.65;stroke-miterlimit:10;}
	.st16{fill:#424A4F;}
	.st17{fill:#7AD65F;}
	.st18{fill:#FF6E67;}
	.st19{fill:none;stroke:#DBE3E3;stroke-width:0.68;stroke-miterlimit:10;}
	.st20{fill:none;stroke:#FF6E67;stroke-width:1.37;stroke-miterlimit:10;}
	.st21{fill:none;stroke:#7AD65F;stroke-width:1.37;stroke-miterlimit:10;}
	.st22{fill:none;stroke:#4C9FDC;stroke-width:1.37;stroke-linecap:round;stroke-miterlimit:10;}
	.st23{fill:#99A2A3;}
	.st24{fill:#72797B;}
	.st25{fill:#5BC8EE;}
</style>
<title>rank tracker_new_screenshot</title>
<g id="Layer_1_1_">
	<path class="st0" d="M493.1,0H24.7C11.1,0,0,11,0,24.7v334.1c0,13.6,11.1,24.7,24.7,24.7h468.3c13.6,0,24.7-11,24.7-24.7V24.6   C517.8,11,506.8,0,493.1,0C493.1,0,493.1,0,493.1,0z"></path>
	<rect x="22.4" y="25.2" class="st1" width="474.4" height="330.3"></rect>
	<rect x="22.4" y="48.6" class="st2" width="474.6" height="22.4"></rect>
	<path class="st3" d="M55.1,41l4.8-4.8h-9.5c-0.2,0-0.4-0.1-0.4,0.1v1c-1.8-2.5-5.2-3.1-7.7-1.4c-1.1,0.7-1.8,1.8-2.2,3.1v-2.7h-1.4   c-0.4,0-1-0.1-1.2,0.2L34.2,40L31,36.5c-0.3-0.3-0.9-0.1-1.3-0.2h-1.4v6.8h1.9c0.2,0,0.1-0.5,0.1-0.7l0.2,0.3l-0.1-0.3v-2.7   l3.8,3.7l3.7-3.7v2.7c0,0.2,0,0.7,0.2,0.7h1.8v-2.7c0.4,2.2,2.7,3.7,5.3,3.7c2.9,0,5.3-2,5.3-4.6c0-0.4-0.1-0.8-0.2-1.2h4.1   L50,43.1h9.4c0.2,0,0.5-0.5,0.5-0.7l0,0v-1.4L55.1,41L55.1,41z M45.4,41.7c-1.2-0.2-2.1-1.3-1.9-2.6c0.2-1.2,1.3-2.1,2.6-1.9   c1.1,0.2,1.9,1.1,1.9,2.3C47.9,40.8,46.7,41.8,45.4,41.7L45.4,41.7z"></path>
	<line class="st4" x1="465.8" y1="312.5" x2="40.3" y2="312.5"></line>
	<line class="st5" x1="40.9" y1="246.2" x2="41.6" y2="246.2"></line>
	<line class="st6" x1="43.5" y1="246.2" x2="464.5" y2="246.2"></line>
	<line class="st5" x1="40.9" y1="279" x2="41.6" y2="279"></line>
	<line class="st6" x1="43.5" y1="279" x2="464.9" y2="279"></line>
	<path class="st7" d="M43.8,312l40.1-2.9l42.3-1.2l43-11.3l41-21.5l44-23.9l40.3-16l41-5.8l43.2-0.1l42.1,0.1l43.2-2.2"></path>
	<circle class="st8" cx="126.5" cy="308" r="2.7"></circle>
	<circle class="st8" cx="169.2" cy="296.6" r="2.7"></circle>
	<circle class="st8" cx="211.2" cy="274.9" r="2.7"></circle>
	<circle class="st8" cx="253.9" cy="251" r="2.7"></circle>
	<circle class="st8" cx="294.7" cy="235.1" r="2.7"></circle>
	<circle class="st8" cx="335.3" cy="229.3" r="2.7"></circle>
	<circle class="st8" cx="378.9" cy="229.5" r="2.7"></circle>
	<circle class="st8" cx="420.6" cy="229.5" r="2.7"></circle>
	<circle class="st8" cx="464.1" cy="226.9" r="2.7"></circle>
	<circle class="st8" cx="84.3" cy="310.2" r="2.7"></circle>
	<circle class="st8" cx="43.5" cy="312.3" r="2.7"></circle>
	<path class="st9" d="M43.8,297.2l40.8-1.6l41.7-1.7l43-3.1l40.6-9.2l43.7-9.5l41.2-7.1l40-2.5l43,0.3l42.3-1l43.9-0.4"></path>
	<circle class="st10" cx="126.5" cy="293.2" r="2.7"></circle>
	<circle class="st10" cx="169.2" cy="290.5" r="2.7"></circle>
	<circle class="st10" cx="211.2" cy="281.5" r="2.7"></circle>
	<circle class="st10" cx="253.9" cy="271.5" r="2.7"></circle>
	<circle class="st10" cx="294.7" cy="265" r="2.7"></circle>
	<circle class="st10" cx="335.4" cy="262.5" r="2.7"></circle>
	<circle class="st10" cx="378.2" cy="262.5" r="2.7"></circle>
	<circle class="st10" cx="420.6" cy="262.5" r="2.7"></circle>
	<circle class="st10" cx="464.1" cy="261.5" r="2.7"></circle>
	<circle class="st10" cx="84.3" cy="295.5" r="2.7"></circle>
	<circle class="st10" cx="43.5" cy="297.6" r="2.7"></circle>
	<line class="st11" x1="45.8" y1="242.7" x2="41.3" y2="242.7"></line>
	<line class="st11" x1="45.8" y1="275.1" x2="41.3" y2="275.1"></line>
	<line class="st5" x1="40.9" y1="212.8" x2="41.6" y2="212.8"></line>
	<line class="st6" x1="43.5" y1="212.8" x2="464.9" y2="212.8"></line>
	<line class="st11" x1="45.8" y1="208.9" x2="41.3" y2="208.9"></line>
	<line class="st11" x1="45.8" y1="304.7" x2="41.3" y2="304.7"></line>
	<line class="st11" x1="45.6" y1="319.2" x2="41.1" y2="319.2"></line>
	<line class="st11" x1="86.7" y1="319.7" x2="82.2" y2="319.7"></line>
	<line class="st11" x1="128.3" y1="320.1" x2="123.8" y2="320.1"></line>
	<line class="st11" x1="171.4" y1="320.6" x2="166.9" y2="320.6"></line>
	<line class="st11" x1="213.5" y1="321.1" x2="209" y2="321.1"></line>
	<line class="st11" x1="256.2" y1="321.6" x2="251.7" y2="321.6"></line>
	<line class="st11" x1="296.9" y1="322" x2="292.4" y2="322"></line>
	<line class="st11" x1="337.6" y1="322.5" x2="333.1" y2="322.5"></line>
	<line class="st11" x1="381.2" y1="323" x2="376.6" y2="323"></line>
	<line class="st11" x1="422.8" y1="323.4" x2="418.3" y2="323.4"></line>
	<line class="st11" x1="465.7" y1="324" x2="461.2" y2="324"></line>
	<path class="st12" d="M44.3,83.6c1-0.1,2,0.2,2.9,0.8c0.7,0.6,1.1,1.4,1,2.3c0,0.6-0.2,1.2-0.6,1.6c-0.4,0.5-0.9,0.8-1.5,1   c0.6,0.1,1.2,0.5,1.6,1c0.3,0.5,0.5,1.1,0.5,1.8v1c0,0.3,0.1,0.6,0.2,0.9c0.1,0.2,0.3,0.3,0.6,0.3h0.4V95h-0.6   c-0.5,0-0.9-0.2-1.2-0.6c-0.2-0.4-0.3-0.9-0.3-1.4v-1c0-0.6-0.2-1.2-0.7-1.6c-0.5-0.4-1.2-0.6-1.8-0.6h-2.9v4.5l1.4,0.2v0.7h-3.6   v-0.7l1.3-0.1v-9.9l-1.3-0.1v-0.8h4.8L44.3,83.6z M41.7,89.1h2.5c0.8,0.1,1.6-0.1,2.2-0.6c0.9-0.9,1-2.3,0.2-3.3c0,0,0,0,0,0   l-0.1-0.1c-0.6-0.5-1.4-0.7-2.2-0.6h-2.6L41.7,89.1L41.7,89.1L41.7,89.1z"></path>
	<path class="st12" d="M56.5,95.2c-0.1-0.2-0.1-0.5-0.1-0.8c0-0.2-0.1-0.4-0.1-0.6C56,94.3,55.5,94.7,55,95   c-0.5,0.3-1.1,0.5-1.8,0.5c-0.7,0.1-1.5-0.2-2-0.7c-0.5-0.5-0.7-1.1-0.7-1.8c0-0.8,0.3-1.5,1-1.9c0.8-0.5,1.8-0.7,2.8-0.7h1.9v-1.1   c0-0.5-0.2-1.1-0.6-1.4c-0.5-0.4-1.1-0.6-1.7-0.6c-0.4,0-0.9,0.1-1.3,0.2c-0.4,0.1-0.7,0.3-1,0.6l-0.1,1.1h-0.8v-1.7   c0.4-0.3,0.9-0.6,1.4-0.8c0.6-0.2,1.2-0.3,1.8-0.2c0.8,0,1.6,0.2,2.2,0.8c0.6,0.5,0.9,1.2,0.9,2V94c0,0.2,0,0.3,0.1,0.5l0.9,0.1   v0.7L56.5,95.2L56.5,95.2z M53.3,94.5c0.7,0,1.3-0.1,1.8-0.5c0.5-0.3,0.9-0.7,1.2-1.2v-1.7h-1.9c-0.7,0-1.4,0.2-2,0.6   c-0.5,0.3-0.8,0.8-0.8,1.4c0,0.4,0.2,0.8,0.5,1.1C52.5,94.4,52.9,94.5,53.3,94.5L53.3,94.5z"></path>
	<path class="st12" d="M59.4,94.5l1.3-0.1v-7l-1.3-0.1v-0.7h2.1l0.1,1.5c0.2-0.5,0.6-0.9,1.1-1.2c0.5-0.3,1.1-0.4,1.6-0.4   c0.8-0.1,1.6,0.2,2.1,0.8c0.6,0.8,0.8,1.7,0.8,2.7v4.4l1.3,0.1v0.7h-3.6v-0.6l1.3-0.1v-4.4c0.1-0.8-0.1-1.5-0.6-2.1   c-0.4-0.4-1-0.7-1.6-0.6c-0.6,0-1.2,0.2-1.6,0.6c-0.4,0.4-0.8,0.9-0.9,1.4v5.2l1.3,0.1v0.7h-3.5v-0.7H59.4L59.4,94.5z"></path>
	<path class="st12" d="M69.7,83.6v-0.7h2.2v7.4h1l2.6-2.8v-0.1l-0.8-0.1v-0.7h3v0.7l-1,0.1l-2.9,3.1l3.4,3.9l1,0.1v0.7h-3v-0.6   l0.9-0.1l-3-3.4H72v3.4l1.3,0.1v0.7h-3.6v-0.7l1.3-0.1V83.6H69.7z"></path>
	<path class="st12" d="M79.4,94.5l1.3-0.1v-7l-1.3-0.1v-0.7h2.2v7.8l1.3,0.1v0.7h-3.5V94.5z M81.6,84.2h-1v-1.4h1V84.2z"></path>
	<path class="st12" d="M84.3,94.5l1.3-0.1v-7l-1.3-0.1v-0.7h2.1l0.1,1.5c0.2-0.5,0.6-0.9,1.1-1.2c0.5-0.3,1.1-0.4,1.6-0.4   c0.8-0.1,1.6,0.2,2.1,0.8c0.6,0.8,0.8,1.7,0.8,2.7v4.4l1.3,0.1v0.7h-3.6v-0.6l1.3-0.1v-4.4c0.1-0.8-0.1-1.5-0.6-2.1   c-0.4-0.4-1-0.7-1.6-0.6c-0.6,0-1.2,0.2-1.6,0.6c-0.4,0.4-0.8,0.9-0.9,1.4v5.2l1.3,0.1v0.7h-3.5L84.3,94.5L84.3,94.5L84.3,94.5z"></path>
	<path class="st12" d="M94.9,91c-0.1-1.2,0.2-2.3,0.9-3.3c0.9-1.2,2.6-1.6,4-0.8c0.5,0.3,0.8,0.7,1.1,1.1l0.1-1.4h0.8v8.5   c0.1,1-0.3,1.9-0.9,2.6c-0.7,0.7-1.6,1-2.5,1c-0.4,0-0.9-0.1-1.3-0.1c-0.4-0.1-0.9-0.2-1.2-0.4l0.3-0.8c0.3,0.1,0.7,0.3,1.1,0.4   c0.4,0.1,0.8,0.1,1.1,0.1c0.7,0,1.4-0.2,1.9-0.8c0.4-0.6,0.7-1.3,0.6-2v-1.1c-0.3,0.4-0.7,0.7-1.1,1c-0.5,0.2-1,0.3-1.6,0.3   c-0.9,0-1.8-0.4-2.4-1.1c-0.7-0.9-1-2-1-3.1L94.9,91L94.9,91z M95.9,91.1c-0.1,0.9,0.1,1.7,0.6,2.5c0.4,0.7,1.1,1,1.9,1   c0.6,0,1.1-0.1,1.6-0.4c0.4-0.3,0.8-0.7,1-1.1v-3.9c-0.2-0.5-0.5-0.9-0.9-1.2c-0.4-0.4-1-0.5-1.6-0.5c-0.8,0-1.5,0.3-1.9,1   c-0.4,0.8-0.7,1.7-0.6,2.7L95.9,91.1L95.9,91.1z"></path>
	<path class="st12" d="M110.2,89.3h-0.8l-0.1-1.2c-0.3-0.3-0.6-0.4-0.9-0.6c-0.4-0.1-0.8-0.2-1.2-0.2c-0.6,0-1.1,0.1-1.6,0.5   c-0.3,0.2-0.5,0.6-0.6,1c-0.1,0.4,0.1,0.8,0.5,1c0.5,0.4,1.1,0.6,1.8,0.7c0.8,0.1,1.6,0.5,2.3,1c0.5,0.4,0.8,1,0.8,1.6   c0,0.7-0.3,1.3-0.9,1.7c-0.7,0.5-1.5,0.7-2.3,0.7c-0.6,0-1.2-0.1-1.7-0.3c-0.5-0.2-1-0.4-1.4-0.7v-1.7h0.8L105,94   c0.3,0.3,0.6,0.5,1,0.6c0.4,0.1,0.8,0.2,1.2,0.1c0.6,0,1.2-0.1,1.6-0.5c0.4-0.2,0.6-0.6,0.6-1.1c0-0.4-0.2-0.8-0.5-1   c-0.5-0.4-1.1-0.6-1.8-0.8c-0.8-0.1-1.6-0.4-2.2-0.9c-0.5-0.4-0.8-1-0.8-1.6c0-0.6,0.3-1.3,0.8-1.6c0.6-0.5,1.4-0.7,2.2-0.7   c0.6,0,1.2,0.1,1.7,0.3c0.5,0.2,0.9,0.4,1.3,0.7L110.2,89.3L110.2,89.3z"></path>
	<path class="st0" d="M37.2,58.2L37.2,58.2l-2.5,6.3h-0.7l-2.5-6.3l0,0l0.1,3.1v2.2l0.9,0.1v0.7h-2.8v-0.7l0.9-0.1v-6.1l-0.9-0.1   v-0.7H32l2.5,6.4l0,0l2.5-6.4h2.2v0.7l-0.9,0.1v6.1l0.9,0.1v0.7h-2.8v-0.7l0.9-0.1v-2.2L37.2,58.2z"></path>
	<path class="st0" d="M39.9,61.5c0-0.8,0.2-1.5,0.7-2.1c1-1.1,2.7-1.1,3.7-0.1c0,0,0.1,0.1,0.1,0.1c0.5,0.6,0.7,1.4,0.7,2.1v0.1   c0,0.8-0.2,1.5-0.7,2.1c-0.5,0.6-1.2,0.9-1.9,0.8c-0.7,0-1.4-0.3-1.9-0.8c-0.5-0.6-0.7-1.4-0.7-2.1L39.9,61.5L39.9,61.5z M41,61.6   c0,0.5,0.1,1.1,0.4,1.5c0.2,0.4,0.7,0.6,1.2,0.6c0.5,0,0.9-0.2,1.2-0.6c0.3-0.5,0.4-1,0.4-1.5v-0.1c0-0.5-0.1-1.1-0.4-1.5   c-0.2-0.4-0.7-0.6-1.2-0.6c-0.5,0-0.9,0.2-1.2,0.6c-0.3,0.5-0.4,1-0.4,1.5V61.6z"></path>
	<path class="st0" d="M47.4,63.6h2.4l0.1-0.9h0.9v1.8h-4.6v-0.8l3.1-4.2h-2.1L47,60.4h-0.9v-1.7h4.4v0.8L47.4,63.6z"></path>
	<path class="st0" d="M58.1,56.6c0.7,0,1.4,0.2,2,0.6c0.5,0.4,0.7,1.1,0.7,1.7c0,0.6-0.2,1.3-0.7,1.7c-0.6,0.5-1.3,0.7-2,0.6h-1.6   v2.3l0.9,0.1v0.7h-2.8v-0.7l0.9-0.1v-6.1l-0.9-0.1v-0.7L58.1,56.6L58.1,56.6z M56.3,60.5H58c0.4,0.1,0.9-0.1,1.2-0.4   c0.3-0.3,0.4-0.7,0.4-1.1c0-0.4-0.1-0.8-0.4-1.1c-0.3-0.3-0.7-0.4-1.2-0.4h-1.6V60.5L56.3,60.5z"></path>
	<path class="st0" d="M61.5,59.3v-0.7h1.9l0.1,0.8c0.1-0.3,0.3-0.5,0.6-0.7c0.2-0.2,0.5-0.3,0.8-0.3h0.3c0.1,0,0.1,0,0.2,0.1l-0.1,1   h-0.6c-0.2,0-0.5,0.1-0.7,0.2c-0.2,0.2-0.3,0.4-0.4,0.6v3.3l0.9,0.1v0.7h-2.8v-0.7l0.9-0.1v-4.2L61.5,59.3z"></path>
	<path class="st0" d="M66,61.5c0-0.8,0.2-1.5,0.7-2.1c0.5-0.5,1.2-0.8,1.9-0.8c0.7,0,1.4,0.3,1.9,0.8c0.5,0.6,0.7,1.4,0.7,2.1v0.1   c0,0.8-0.2,1.5-0.7,2.1c-0.5,0.6-1.2,0.9-1.9,0.8c-0.7,0-1.4-0.3-1.9-0.8c-0.5-0.6-0.7-1.4-0.7-2.1V61.5z M67.1,61.6   c0,0.5,0.1,1.1,0.4,1.5c0.2,0.4,0.7,0.6,1.1,0.6c0.5,0,0.9-0.2,1.1-0.6c0.3-0.5,0.4-1,0.4-1.5v-0.1c0-0.5-0.1-1.1-0.4-1.5   c-0.2-0.4-0.7-0.6-1.1-0.6c-0.5,0-0.9,0.2-1.1,0.6c-0.3,0.5-0.4,1-0.4,1.5V61.6z"></path>
	<path class="st0" d="M80.8,59.1h-0.8L79.9,58l-0.6-0.4c-0.3-0.1-0.6-0.2-0.9-0.1c-0.7,0-1.4,0.3-1.9,0.9c-0.4,0.7-0.7,1.4-0.7,2.2   v0.1c0,0.8,0.2,1.6,0.6,2.2c0.4,0.6,1.1,0.9,1.8,0.9c0.3,0,0.7,0,1-0.1c0.2-0.1,0.5-0.2,0.7-0.4l0.2-1.1h0.8v1.3   c-0.3,0.3-0.6,0.6-1,0.8c-0.5,0.2-1,0.3-1.6,0.3c-1,0-1.9-0.4-2.5-1.1c-0.7-0.8-1-1.8-1-2.9v-0.1c0-1,0.3-2.1,1-2.9   c0.6-0.7,1.6-1.1,2.5-1.1c0.5,0,1.1,0.1,1.6,0.3c0.4,0.2,0.7,0.4,1,0.8L80.8,59.1L80.8,59.1z"></path>
	<path class="st0" d="M85.8,64.5c0-0.1-0.1-0.3-0.1-0.4c0-0.1,0-0.3-0.1-0.4c-0.2,0.3-0.5,0.5-0.8,0.7c-0.3,0.2-0.6,0.3-1,0.3   c-0.5,0-1-0.1-1.4-0.4c-0.3-0.3-0.5-0.8-0.5-1.2c0-0.5,0.2-1,0.7-1.3c0.6-0.3,1.2-0.5,1.9-0.5h1.1v-0.7c0-0.3-0.1-0.6-0.3-0.8   c-0.3-0.2-0.6-0.3-0.9-0.3c-0.2,0-0.5,0-0.7,0.1c-0.2,0.1-0.3,0.2-0.5,0.3l-0.1,0.6h-0.8v-1.1c0.3-0.2,0.6-0.4,1-0.5   c0.4-0.1,0.8-0.2,1.2-0.2c0.6,0,1.1,0.1,1.6,0.5c0.4,0.4,0.6,0.9,0.6,1.4v3.2l0.4,0.1v0.7h-1.4L85.8,64.5L85.8,64.5z M84.1,63.7   c0.4,0,0.7-0.1,1-0.3c0.3-0.1,0.5-0.3,0.6-0.6v-1h-1.1c-0.4,0-0.7,0.1-1,0.3c-0.2,0.2-0.4,0.5-0.4,0.8c0,0.2,0.1,0.4,0.2,0.6   C83.6,63.6,83.9,63.7,84.1,63.7L84.1,63.7z"></path>
	<path class="st0" d="M87.8,63.8l0.9-0.1v-4.1l-0.9-0.1v-0.7h1.9l0.1,0.8c0.2-0.3,0.5-0.5,0.8-0.6c0.3-0.1,0.7-0.2,1-0.2   c0.4,0,0.7,0.1,1,0.3c0.3,0.2,0.5,0.5,0.6,0.8c0.2-0.3,0.4-0.6,0.8-0.8c0.3-0.2,0.6-0.3,1-0.3c0.5,0,1.1,0.2,1.4,0.6   c0.4,0.5,0.6,1.2,0.6,1.9v2.7l0.9,0.1v0.7h-2.8V64l0.9-0.1v-2.7c0-0.4-0.1-0.9-0.3-1.2c-0.2-0.3-0.6-0.4-0.9-0.3   c-0.3,0-0.7,0.1-0.9,0.4c-0.2,0.3-0.3,0.6-0.4,1v2.9l0.9,0.1v0.7h-2.8V64l0.9-0.1v-2.7c0-0.4-0.1-0.9-0.3-1.2   c-0.2-0.3-0.5-0.4-0.9-0.4c-0.3,0-0.6,0.1-0.8,0.2c-0.2,0.1-0.4,0.3-0.5,0.6v3.5l0.9,0.1v0.7h-2.7v-0.7L87.8,63.8z"></path>
	<path class="st0" d="M98.3,66l0.9-0.1v-6.4l-0.9-0.1v-0.7h1.8l0.1,0.7c0.2-0.3,0.4-0.5,0.7-0.6c0.9-0.4,2.1-0.1,2.7,0.7   c0.4,0.7,0.7,1.4,0.6,2.2v0.1c0,0.7-0.2,1.4-0.6,2c-0.4,0.5-1,0.8-1.6,0.8c-0.3,0-0.7-0.1-1-0.2c-0.3-0.1-0.5-0.3-0.7-0.6v2   l0.9,0.1v0.7h-2.8L98.3,66L98.3,66z M103.1,61.7c0-0.6-0.1-1.2-0.4-1.6c-0.2-0.4-0.7-0.6-1.1-0.6c-0.3,0-0.5,0.1-0.8,0.2   c-0.2,0.1-0.4,0.3-0.6,0.6V63c0.1,0.3,0.3,0.5,0.6,0.6c0.2,0.1,0.5,0.2,0.8,0.2c0.5,0,0.9-0.2,1.1-0.6   C103,62.7,103.1,62.2,103.1,61.7L103.1,61.7L103.1,61.7L103.1,61.7z"></path>
	<path class="st0" d="M108.9,64.5c0-0.1-0.1-0.3-0.1-0.4c0-0.1,0-0.3-0.1-0.4c-0.2,0.3-0.5,0.5-0.8,0.7c-0.3,0.2-0.6,0.3-1,0.3   c-0.5,0-1-0.1-1.4-0.4c-0.7-0.7-0.6-1.8,0.1-2.4c0,0,0.1-0.1,0.1-0.1c0.5-0.4,1.2-0.5,1.9-0.5h1.1v-0.7c0-0.3-0.1-0.6-0.3-0.8   c-0.3-0.2-0.6-0.3-0.9-0.3c-0.2,0-0.5,0-0.7,0.1c-0.2,0.1-0.3,0.2-0.5,0.3l-0.1,0.6h-0.9v-1.1c0.3-0.2,0.6-0.4,1-0.5   c0.4-0.1,0.8-0.2,1.2-0.2c0.6,0,1.1,0.1,1.6,0.5c0.4,0.4,0.6,0.9,0.6,1.4v3.2l0.4,0.1v0.7h-1.3L108.9,64.5L108.9,64.5z M107.2,63.7   c0.4,0,0.7-0.1,1-0.3c0.3-0.1,0.5-0.4,0.6-0.6v-1h-1.1c-0.4,0-0.7,0.1-1,0.3c-0.2,0.2-0.4,0.5-0.4,0.8c0,0.2,0.1,0.4,0.2,0.6   C106.7,63.6,107,63.7,107.2,63.7L107.2,63.7z"></path>
	<path class="st0" d="M111.2,63.8l0.9-0.1v-4.1l-0.9-0.1v-0.7h1.9v5l0.9,0.1v0.7h-2.8L111.2,63.8L111.2,63.8z M113.1,57.1H112V56   h1.1V57.1z"></path>
	<path class="st0" d="M114.8,61.7c-0.1-0.8,0.2-1.6,0.6-2.2c0.4-0.6,1-0.9,1.7-0.9c0.3,0,0.7,0.1,1,0.2c0.3,0.1,0.5,0.4,0.7,0.6   l0.1-0.8h0.9v5.7c0,0.6-0.2,1.3-0.6,1.8c-0.5,0.4-1.1,0.6-1.8,0.6c-0.3,0-0.6-0.1-0.9-0.1c-0.3-0.1-0.6-0.2-0.9-0.3l0.3-0.8   c0.2,0.1,0.4,0.2,0.7,0.3c0.2,0.1,0.5,0.1,0.8,0.1c0.4,0,0.7-0.1,1-0.4c0.2-0.3,0.4-0.7,0.3-1.1v-0.6c-0.2,0.2-0.4,0.4-0.7,0.6   c-0.3,0.1-0.6,0.2-0.9,0.2c-0.7,0-1.3-0.3-1.7-0.8C114.9,63,114.7,62.3,114.8,61.7L114.8,61.7L114.8,61.7L114.8,61.7z M115.8,61.8   c0,0.5,0.1,1,0.3,1.4c0.2,0.4,0.7,0.6,1.1,0.6c0.3,0,0.6-0.1,0.8-0.2c0.2-0.2,0.4-0.4,0.6-0.6v-2.7c-0.1-0.2-0.3-0.4-0.6-0.6   c-0.2-0.1-0.5-0.2-0.8-0.2c-0.5,0-0.9,0.2-1.1,0.6C115.8,60.6,115.7,61.2,115.8,61.8L115.8,61.8L115.8,61.8L115.8,61.8z"></path>
	<path class="st0" d="M120.9,63.8l0.9-0.1v-4.1l-0.9-0.1v-0.7h1.9l0.1,0.9c0.2-0.3,0.4-0.6,0.8-0.8c0.8-0.5,1.8-0.3,2.5,0.3   c0.4,0.5,0.6,1.1,0.6,1.7v2.9l0.9,0.1v0.7h-2.8v-0.7l0.9-0.1v-2.9c0-0.6-0.1-0.9-0.3-1.1c-0.3-0.3-0.6-0.4-1-0.3   c-0.3,0-0.6,0.1-0.8,0.2c-0.3,0.1-0.5,0.4-0.6,0.6v3.4l0.9,0.1v0.7h-2.7v-0.7L120.9,63.8z"></path>
	<path class="st0" d="M132.5,60.5h-0.8l-0.2-0.7c-0.1-0.1-0.3-0.3-0.5-0.3c-0.2-0.1-0.4-0.1-0.7-0.1c-0.4,0-0.7,0.1-0.8,0.3   c-0.2,0.1-0.3,0.4-0.3,0.6c0,0.2,0.1,0.4,0.3,0.6c0.3,0.2,0.6,0.3,1,0.3c0.6,0.1,1.1,0.3,1.6,0.6c0.4,0.3,0.6,0.7,0.6,1.1   c0,0.5-0.2,0.9-0.6,1.2c-0.5,0.4-1.1,0.5-1.6,0.5c-0.4,0-0.8,0-1.1-0.1c-0.4-0.1-0.7-0.2-1-0.4v-1.3h0.8l0.2,0.8   c0.1,0.1,0.3,0.2,0.5,0.3c0.2,0.1,0.4,0.1,0.6,0.1c0.3,0,0.6-0.1,0.9-0.2c0.2-0.1,0.3-0.4,0.3-0.6c0-0.2-0.1-0.4-0.3-0.6   c-0.3-0.2-0.7-0.3-1-0.4c-0.6-0.1-1.1-0.3-1.6-0.6c-0.4-0.3-0.6-0.7-0.6-1.1c0-0.5,0.2-0.9,0.6-1.2c0.5-0.3,1-0.5,1.6-0.5   c0.4,0,0.8,0.1,1.1,0.2c0.3,0.1,0.6,0.3,0.9,0.5L132.5,60.5z"></path>
	<rect x="336.6" y="84.8" class="st13" width="0.8" height="1.2"></rect>
	<rect x="340.7" y="84.8" class="st13" width="0.8" height="1.2"></rect>
	<rect x="407.5" y="84.7" class="st13" width="0.8" height="1.2"></rect>
	<rect x="411.6" y="84.7" class="st13" width="0.8" height="1.2"></rect>
	<path class="st13" d="M247.9,94.2c0.2,0,0.4-0.2,0.4-0.4s-0.2-0.4-0.4-0.4c0,0,0,0,0,0c-0.2,0-0.4,0.2-0.4,0.4c0,0,0,0,0,0.1   C247.6,93.9,247.7,94.1,247.9,94.2z M249.9,92.9v-7.3h-4.1v7.3H249.9z M250.7,85.6v8.1c0,0.4-0.4,0.8-0.8,0.8h-4.1   c-0.4,0-0.8-0.4-0.8-0.8v-8.1c0-0.4,0.4-0.8,0.8-0.8h4.1C250.4,84.8,250.7,85.1,250.7,85.6z"></path>
	<path class="st14" d="M257.3,92.2c-0.4,0.2-0.9,0.2-1.3,0.2c-1.1,0.1-2.1-0.7-2.2-1.9v-0.3c0-1.2,0.9-2.2,2.1-2.3   c0.1,0,0.2,0,0.3,0c0.4,0,0.7,0.1,1.1,0.2l-0.1,0.5c-0.3-0.1-0.7-0.2-1-0.2c-0.9-0.1-1.7,0.6-1.8,1.5c0,0.1,0,0.2,0,0.2   c-0.1,0.9,0.6,1.7,1.5,1.8c0.1,0,0.2,0,0.2,0c0.3,0,0.5,0,0.8-0.1v-1.3h-0.9v-0.5h1.5L257.3,92.2L257.3,92.2z"></path>
	<path class="st14" d="M261.1,90.8c0.1,0.8-0.5,1.6-1.4,1.7c-0.1,0-0.1,0-0.2,0c-0.8,0-1.5-0.7-1.5-1.5c0,0,0-0.1,0-0.1   c-0.1-0.9,0.6-1.6,1.4-1.7c0.1,0,0.1,0,0.2,0c0.8,0,1.5,0.7,1.5,1.5C261.1,90.7,261.1,90.8,261.1,90.8z M258.6,90.8   c0,0.7,0.4,1.2,1,1.2s1-0.5,1-1.2c0-0.5-0.3-1.2-1-1.2S258.6,90.2,258.6,90.8z"></path>
	<path class="st14" d="M264.6,90.8c0.1,0.8-0.5,1.6-1.4,1.7c-0.1,0-0.1,0-0.2,0c-0.8,0-1.5-0.7-1.5-1.5c0,0,0-0.1,0-0.1   c-0.1-0.9,0.6-1.6,1.4-1.7c0.1,0,0.1,0,0.2,0c0.8,0,1.5,0.7,1.5,1.5C264.6,90.7,264.6,90.8,264.6,90.8z M262.1,90.8   c0,0.7,0.4,1.2,1,1.2s1-0.5,1-1.2c0-0.5-0.3-1.2-1-1.2S262.1,90.2,262.1,90.8z"></path>
	<path class="st14" d="M268.1,89.3c0,0.2,0,0.5,0,0.9v1.8c0.1,0.5-0.1,1-0.5,1.4c-0.3,0.3-0.7,0.4-1.1,0.4c-0.3,0-0.7-0.1-1-0.2   l0.1-0.4c0.3,0.2,0.6,0.3,0.9,0.2c0.6,0,1-0.3,1-1.1v-0.3l0,0c-0.2,0.3-0.6,0.5-1,0.5c-0.8,0-1.4-0.7-1.3-1.5c0,0,0,0,0,0   c-0.1-0.8,0.5-1.6,1.3-1.7c0,0,0.1,0,0.1,0c0.4,0,0.8,0.2,1,0.6l0,0v-0.5L268.1,89.3L268.1,89.3z M267.5,90.5c0-0.1,0-0.2,0-0.2   c-0.1-0.4-0.4-0.6-0.8-0.6c-0.6,0-0.9,0.5-0.9,1.2s0.3,1.1,0.9,1.1c0.4,0,0.7-0.2,0.8-0.6c0-0.1,0.1-0.2,0.1-0.3L267.5,90.5   L267.5,90.5z"></path>
	<path class="st14" d="M269,87.8h0.6v4.6H269V87.8z"></path>
	<path class="st14" d="M270.8,90.9c-0.1,0.5,0.4,1,0.9,1.1c0,0,0,0,0,0h0.2c0.3,0,0.6-0.1,0.9-0.2l0.1,0.4c-0.3,0.1-0.7,0.2-1,0.2   c-0.8,0-1.5-0.6-1.5-1.4c0-0.1,0-0.2,0-0.2c-0.1-0.8,0.5-1.6,1.4-1.7c0,0,0.1,0,0.1,0c0.7,0,1.3,0.6,1.3,1.3c0,0,0,0.1,0,0.1   c0,0.1,0,0.2,0,0.3L270.8,90.9z M272.5,90.5c0-0.4-0.1-0.9-0.8-0.9c-0.5,0-0.9,0.4-0.9,0.9H272.5z"></path>
	<path class="st14" d="M278.9,90.5c0-0.6-0.1-1.3-0.1-1.9l0,0c-0.1,0.5-0.3,1.1-0.6,1.6l-0.8,2.1H277l-0.7-2.1   c-0.2-0.6-0.4-1.2-0.5-1.7l0,0c0,0.6-0.1,1.3-0.1,1.9l-0.1,1.9h-0.6l0.3-4.4h0.7l0.8,2.1c0.2,0.5,0.3,1,0.5,1.5l0,0   c0.1-0.4,0.3-0.9,0.5-1.5l0.8-2.1h0.7l0.3,4.4h-0.5L278.9,90.5z"></path>
	<path class="st14" d="M283.2,90.8c0.1,0.8-0.5,1.6-1.4,1.7c-0.1,0-0.1,0-0.2,0c-0.8,0-1.5-0.7-1.5-1.5c0,0,0-0.1,0-0.1   c-0.1-0.9,0.6-1.6,1.4-1.7c0.1,0,0.1,0,0.2,0c0.8,0,1.5,0.7,1.5,1.5C283.3,90.7,283.3,90.8,283.2,90.8z M280.8,90.8   c0,0.7,0.4,1.2,1,1.2s1-0.5,1-1.2c0-0.5-0.3-1.2-1-1.2S280.8,90.2,280.8,90.8z"></path>
	<path class="st14" d="M283.9,92.4c0-0.2,0-0.5,0-0.8v-3.8h0.6v2l0,0c0.2-0.4,0.6-0.6,1.1-0.6c0.8,0,1.4,0.7,1.3,1.4   c0,0.1,0,0.1,0,0.2c0.1,0.8-0.5,1.6-1.3,1.7c0,0-0.1,0-0.1,0c-0.4,0-0.9-0.2-1.1-0.6l0,0v0.5L283.9,92.4z M284.5,91.2   c0,0.1,0,0.1,0,0.2c0.1,0.4,0.5,0.7,0.9,0.7c0.6,0,1-0.5,1-1.2s-0.3-1.2-0.9-1.2c-0.4,0-0.8,0.3-0.9,0.7c0,0.1,0,0.1,0,0.2   L284.5,91.2L284.5,91.2z"></path>
	<path class="st14" d="M288.3,88.4c0,0.2-0.2,0.4-0.4,0.4c-0.2,0-0.4-0.2-0.4-0.4l0,0c0-0.2,0.1-0.4,0.3-0.4c0,0,0,0,0,0l0,0   C288.1,88,288.2,88.2,288.3,88.4C288.3,88.4,288.3,88.4,288.3,88.4z M287.7,92.4v-3.2h0.6v3.1L287.7,92.4L287.7,92.4z"></path>
	<path class="st14" d="M289.2,87.8h0.6v4.6h-0.6V87.8z"></path>
	<path class="st14" d="M291.1,90.9c-0.1,0.5,0.4,1,0.9,1.1c0,0,0,0,0,0h0.2c0.3,0,0.6-0.1,0.9-0.2l0.1,0.4c-0.3,0.1-0.7,0.2-1,0.2   c-0.8,0-1.5-0.6-1.5-1.4c0-0.1,0-0.2,0-0.2c-0.1-0.8,0.5-1.6,1.4-1.7c0,0,0.1,0,0.1,0c0.7,0,1.3,0.6,1.3,1.3c0,0,0,0.1,0,0.1   c0,0.1,0,0.2,0,0.3L291.1,90.9z M292.8,90.5c0-0.4-0.1-0.9-0.8-0.9c-0.5,0-0.9,0.4-0.9,0.9H292.8z"></path>
	<path class="st14" d="M295.7,90.9c-0.1,0.5,0.4,1,0.9,1.1c0,0,0,0,0,0h0.2c0.3,0,0.6-0.1,0.9-0.2l0.1,0.4c-0.3,0.1-0.7,0.2-1,0.2   c-0.8,0-1.5-0.6-1.5-1.4c0-0.1,0-0.2,0-0.2c-0.1-0.8,0.5-1.6,1.4-1.7c0,0,0.1,0,0.1,0c0.7,0,1.3,0.6,1.3,1.3c0,0,0,0.1,0,0.1   c0,0.1,0,0.2,0,0.3L295.7,90.9z M297.4,90.5c0-0.4-0.1-0.9-0.8-0.9c-0.5,0-0.9,0.4-0.9,0.9H297.4z"></path>
	<path class="st14" d="M298.6,90.1c0-0.3,0-0.6,0-0.8h0.5v0.5l0,0c0.2-0.4,0.6-0.6,1-0.6c0.5,0,1.1,0.2,1.1,1.3v1.9h-0.6v-1.8   c0-0.5-0.2-0.9-0.7-0.9c-0.4,0-0.7,0.2-0.8,0.6c0,0.1,0,0.2,0,0.3v1.9h-0.6L298.6,90.1L298.6,90.1z"></path>
	<path class="st14" d="M303.5,90.4v0.4h-1.6v-0.4H303.5z"></path>
	<path class="st14" d="M304.8,88v2.6c0,1,0.5,1.4,1,1.4s1.1-0.4,1.1-1.4V88h0.6v2.6c0,1.3-0.7,1.9-1.6,1.9s-1.6-0.5-1.6-1.9V88   L304.8,88L304.8,88z"></path>
	<path class="st14" d="M308.3,91.7c0.3,0.2,0.6,0.3,1,0.3c0.6,0,0.9-0.3,0.9-0.8s-0.2-0.6-0.8-0.9s-1.1-0.6-1.1-1.2s0.6-1.2,1.4-1.2   c0.3,0,0.7,0.1,1,0.2l-0.2,0.5c-0.3-0.1-0.5-0.2-0.8-0.2c-0.6,0-0.8,0.4-0.8,0.6s0.3,0.6,0.9,0.8c0.8,0.3,1.1,0.6,1.1,1.3   s-0.5,1.3-1.5,1.3c-0.4,0-0.8-0.1-1.1-0.3L308.3,91.7z"></path>
	<polygon class="st13" points="316.1,91.2 319.2,88.1 313,88.1  "></polygon>
	<path class="st13" d="M343.5,86.4v7.3c0,0.4-0.4,0.8-0.8,0.8h-7.3c-0.4,0-0.8-0.4-0.8-0.8v-7.3c0-0.4,0.4-0.8,0.8-0.8h0.8v0.8h1.6   v-0.8h2.4v0.8h1.6v-0.8h0.8C343.1,85.6,343.5,85.9,343.5,86.4C343.5,86.4,343.5,86.4,343.5,86.4z M342.3,86.4v0.4h-2.4v-0.4h-1.6   v0.4h-2.4v-0.4h-0.4v7.3h7.3v-7.3H342.3z"></path>
	<path class="st13" d="M342.3,88.8v-0.4h-6.5v0.4h1.6v1.7h-1.6v0.4h1.6v1.6h-1.6v0.4h1.6v0.4h0.4v-0.4h2.4v0.4h0.4v-0.4h1.6v-0.4   h-1.6v-1.6h1.6v-0.4h-1.6v-1.6L342.3,88.8L342.3,88.8z M340.3,92.5h-2.4v-1.6h2.4V92.5z M340.3,90.5h-2.4v-1.6h2.4V90.5z"></path>
	<path class="st14" d="M348.1,88h0.6v3.2c0,1.3-0.6,1.6-1.3,1.6c-0.2,0-0.4,0-0.6-0.1l0.1-0.5c0.2,0.1,0.3,0.1,0.5,0.1   c0.5,0,0.8-0.2,0.8-1.2L348.1,88L348.1,88z"></path>
	<path class="st14" d="M351.2,92.8l-0.1-0.4l0,0c-0.2,0.3-0.6,0.5-1,0.5c-0.5,0-0.9-0.4-1-0.9v-0.1c0-0.8,0.7-1.3,1.9-1.3v-0.1   c0-0.3-0.1-0.8-0.7-0.8c-0.3,0-0.6,0.1-0.8,0.2l-0.1-0.4c0.3-0.2,0.6-0.3,1-0.3c1,0,1.2,0.7,1.2,1.4v1.3c0,0.3,0,0.5,0.1,0.8   L351.2,92.8z M351.2,91c-0.6,0-1.3,0.1-1.3,0.8c0,0.3,0.2,0.5,0.5,0.6h0.1c0.3,0,0.7-0.2,0.8-0.6c0-0.1,0-0.1,0-0.2L351.2,91   L351.2,91z"></path>
	<path class="st14" d="M352.6,90.3c0-0.4,0-0.6,0-0.9h0.5v0.6l0,0c0.2-0.4,0.6-0.6,1-0.6c0.4,0,1.1,0.3,1.1,1.5v2h-0.6v-2   c0-0.6-0.2-1-0.7-1c-0.4,0-0.7,0.3-0.8,0.6c0,0.1,0,0.2,0,0.3v2h-0.6v-2.5L352.6,90.3z"></path>
	<path class="st14" d="M358.5,88.8L358.5,88.8l-0.7,0.4l-0.1-0.5l0.9-0.5h0.5v4.6h-0.5L358.5,88.8L358.5,88.8z"></path>
	<path class="st14" d="M363,88.6c-0.1,0-0.3,0-0.4,0c-0.8,0.2-1.4,0.8-1.5,1.6l0,0c0.2-0.3,0.6-0.5,1-0.5c0.7,0,1.3,0.6,1.3,1.4   c0,0,0,0.1,0,0.1c0.1,0.8-0.5,1.5-1.3,1.6c0,0,0,0,0,0c-0.9,0-1.5-0.8-1.5-2c0-0.8,0.2-1.5,0.7-2.1c0.3-0.4,0.8-0.6,1.3-0.7   c0.1,0,0.3,0,0.4,0L363,88.6L363,88.6z M362.8,91.3c0-0.7-0.3-1.1-0.9-1.1c-0.4,0-0.7,0.2-0.8,0.6c0,0.1-0.1,0.2-0.1,0.3   c0,0.8,0.3,1.3,0.9,1.3S362.8,91.9,362.8,91.3z"></path>
	<path class="st14" d="M363.7,93.7c0.2-0.6,0.3-1.1,0.4-1.7l0.6-0.1c-0.1,0.6-0.3,1.2-0.6,1.7L363.7,93.7z"></path>
	<path class="st14" d="M366.5,92.8v-0.4l0.5-0.5c1.1-1.1,1.5-1.7,1.5-2.4c0-0.5-0.2-0.9-0.8-0.9c-0.3,0-0.6,0.2-0.9,0.4l-0.2-0.4   c0.3-0.3,0.7-0.5,1.2-0.5c0.7,0,1.2,0.5,1.3,1.2c0,0.1,0,0.1,0,0.2c0,0.8-0.6,1.5-1.4,2.5l-0.3,0.3h1.9v0.5   C369.2,92.8,366.5,92.8,366.5,92.8z"></path>
	<path class="st14" d="M372.6,90.4c0,1.6-0.5,2.4-1.5,2.4s-1.3-0.8-1.4-2.4s0.6-2.4,1.5-2.4S372.6,89,372.6,90.4z M370.3,90.5   c0,1.2,0.3,1.9,0.8,1.9s0.8-0.8,0.8-1.9s-0.2-1.9-0.8-1.9S370.3,89.3,370.3,90.5z"></path>
	<path class="st14" d="M374.3,88.8L374.3,88.8l-0.7,0.4l-0.1-0.5l0.9-0.5h0.5v4.6h-0.5L374.3,88.8L374.3,88.8z"></path>
	<path class="st14" d="M378.7,88.6c-0.1,0-0.3,0-0.4,0c-0.8,0.2-1.4,0.8-1.5,1.6l0,0c0.2-0.3,0.6-0.5,1-0.5c0.7,0,1.3,0.6,1.3,1.4   c0,0,0,0.1,0,0.1c0.1,0.8-0.5,1.5-1.3,1.6c0,0,0,0,0,0c-0.9,0-1.5-0.8-1.5-2c0-0.8,0.2-1.5,0.7-2.1c0.3-0.4,0.8-0.6,1.3-0.7   c0.1,0,0.3,0,0.4,0L378.7,88.6L378.7,88.6z M378.6,91.3c0-0.7-0.3-1.1-0.9-1.1c-0.4,0-0.7,0.2-0.8,0.6c0,0.1-0.1,0.2-0.1,0.3   c0,0.8,0.3,1.3,0.9,1.3S378.5,91.9,378.6,91.3L378.6,91.3z"></path>
	<polygon class="st13" points="384.3,91.2 387.5,88.1 381.2,88.1  "></polygon>
	<path class="st13" d="M414.5,86.4v7.4c0,0.4-0.4,0.8-0.8,0.8h-7.4c-0.4,0-0.8-0.4-0.8-0.8v-7.4c0-0.4,0.4-0.8,0.8-0.8h0.8v0.8h1.6   v-0.8h2.5v0.8h1.6v-0.8h0.8C414.1,85.6,414.5,85.9,414.5,86.4C414.5,86.4,414.5,86.4,414.5,86.4z M413.2,86.4v0.4h-2.5v-0.4h-1.7   v0.4h-2.5v-0.4h-0.4v7.4h7.4v-7.4H413.2z"></path>
	<path class="st13" d="M413.2,88.8v-0.4h-6.5v0.4h1.6v1.7h-1.6v0.4h1.6v1.6h-1.6v0.4h1.6v0.4h0.4V93h2.5v0.4h0.4V93h1.6v-0.4h-1.6   v-1.6h1.6v-0.4h-1.6v-1.6L413.2,88.8z M411.2,92.5h-2.5v-1.6h2.5V92.5z M411.2,90.5h-2.5v-1.7h2.5V90.5z"></path>
	<path class="st14" d="M417.5,92.4V88h0.6l1.4,2.2c0.3,0.5,0.6,0.9,0.8,1.4l0,0c-0.1-0.6-0.1-1.1-0.1-1.8v-1.8h0.5v4.4h-0.6   l-1.4-2.2c-0.3-0.5-0.6-1-0.8-1.5l0,0c0,0.6,0.1,1.1,0.1,1.8v1.9L417.5,92.4L417.5,92.4z"></path>
	<path class="st14" d="M424.6,90.8c0.1,0.9-0.6,1.6-1.4,1.7c0,0-0.1,0-0.1,0c-0.8,0-1.5-0.7-1.5-1.5c0,0,0-0.1,0-0.1   c-0.1-0.8,0.5-1.6,1.4-1.7c0.1,0,0.1,0,0.2,0c0.8,0,1.5,0.7,1.5,1.5C424.6,90.7,424.6,90.7,424.6,90.8z M422.1,90.8   c0,0.7,0.4,1.2,1,1.2s1-0.5,1-1.2c0-0.5-0.3-1.2-1-1.2S422.1,90.2,422.1,90.8z"></path>
	<path class="st14" d="M425.5,89.3l0.6,1.8c0.1,0.3,0.2,0.5,0.2,0.8l0,0c0.1-0.2,0.2-0.5,0.3-0.8l0.6-1.8h0.6l-1.2,3.1h-0.5   l-1.2-3.1H425.5z"></path>
	<path class="st14" d="M432.4,90.2c0,1.4-0.5,2.2-1.5,2.2s-1.4-0.8-1.4-2.2s0.6-2.2,1.5-2.2S432.4,88.9,432.4,90.2z M430.1,90.3   c0,1.1,0.3,1.7,0.9,1.7s0.9-0.7,0.9-1.8s-0.3-1.7-0.8-1.7S430.1,89.2,430.1,90.3z"></path>
	<path class="st14" d="M433.2,92c0.1,0,0.3,0,0.5,0c0.3,0,0.7-0.2,0.9-0.4c0.3-0.3,0.5-0.7,0.6-1.1l0,0c-0.2,0.3-0.6,0.5-1,0.4   c-0.7,0-1.2-0.5-1.3-1.2v-0.1c0-0.8,0.6-1.5,1.4-1.5c0,0,0,0,0,0h0.1c0.9,0,1.4,0.7,1.4,1.8c0,0.7-0.2,1.5-0.7,2   c-0.3,0.3-0.8,0.5-1.2,0.6c-0.2,0-0.4,0-0.5,0L433.2,92L433.2,92z M433.4,89.6c0,0.5,0.3,0.9,0.7,0.9h0.1c0.3,0,0.7-0.1,0.8-0.4   c0-0.1,0.1-0.1,0.1-0.2c0-0.7-0.3-1.3-0.9-1.3S433.4,89,433.4,89.6L433.4,89.6z"></path>
	<path class="st14" d="M436,93.2c0.2-0.5,0.3-1,0.4-1.6l0.7-0.1c-0.2,0.5-0.4,1.1-0.6,1.6L436,93.2z"></path>
	<path class="st14" d="M438.9,92.4v-0.3l0.5-0.4c1.1-1,1.6-1.6,1.6-2.2c0-0.4-0.2-0.8-0.6-0.8c0,0,0,0,0,0h-0.2   c-0.3,0-0.7,0.1-0.9,0.4l-0.2-0.4c0.3-0.3,0.8-0.4,1.2-0.4c0.7-0.1,1.2,0.4,1.3,1.1c0,0,0,0,0,0v0.1c0,0.8-0.6,1.4-1.5,2.3   l-0.3,0.3h1.9v0.5L438.9,92.4L438.9,92.4z"></path>
	<path class="st14" d="M445.1,90.2c0,1.4-0.5,2.2-1.5,2.2s-1.4-0.8-1.4-2.2s0.6-2.2,1.5-2.2S445.1,88.9,445.1,90.2z M442.8,90.3   c0,1.1,0.3,1.7,0.9,1.7s0.9-0.7,0.9-1.8s-0.3-1.7-0.9-1.7S442.8,89.2,442.8,90.3z"></path>
	<path class="st14" d="M446.8,88.7L446.8,88.7l-0.8,0.4l-0.1-0.4l0.9-0.5h0.5v4.2h-0.6L446.8,88.7L446.8,88.7z"></path>
	<path class="st14" d="M451.4,88.6h-1.6l-0.2,1.1c0.1,0,0.2,0,0.3,0c0.3,0,0.6,0.1,0.9,0.2c0.4,0.2,0.6,0.6,0.6,1.1   c0,0.8-0.7,1.4-1.5,1.4c0,0-0.1,0-0.1,0c-0.4,0-0.7-0.1-1.1-0.2l0.1-0.4c0.3,0.1,0.6,0.2,0.9,0.2c0.5,0,0.9-0.4,1-0.9v-0.1   c0-0.6-0.4-0.9-1.2-0.9c-0.2,0-0.4,0-0.6,0.1l0.3-2h2L451.4,88.6L451.4,88.6z"></path>
	<polygon class="st13" points="456.6,91.2 459.7,88.1 453.4,88.1  "></polygon>
	<rect x="237" y="81.6" class="st15" width="230.8" height="16.2"></rect>
	<path class="st13" d="M50.6,133.8v0.8H49v4.6h-1v-4.6h-1.7v-0.8L50.6,133.8L50.6,133.8z"></path>
	<path class="st13" d="M50.6,139.2v-3.9h0.5c0.1,0,0.1,0,0.2,0.1c0,0,0.1,0.1,0.1,0.2l0.1,0.5c0.1-0.2,0.3-0.4,0.5-0.6   c0.2-0.1,0.4-0.2,0.6-0.2c0.2,0,0.3,0,0.5,0.1l-0.1,0.7c0,0,0,0.1-0.1,0.1s-0.1,0-0.1,0c0,0-0.1,0-0.1,0c-0.1,0-0.2,0-0.2,0   c-0.2,0-0.4,0.1-0.5,0.2c-0.2,0.1-0.3,0.3-0.3,0.5v2.4L50.6,139.2L50.6,139.2z"></path>
	<path class="st13" d="M56.6,139.2h-0.4c-0.1,0-0.1,0-0.2,0c-0.1,0-0.1-0.1-0.1-0.2l-0.1-0.3c-0.1,0.1-0.2,0.2-0.3,0.2   c-0.1,0.1-0.2,0.1-0.3,0.2c-0.1,0-0.2,0.1-0.3,0.1c-0.1,0-0.2,0-0.4,0c-0.2,0-0.3,0-0.4-0.1c-0.1,0-0.3-0.1-0.4-0.2   c-0.1-0.1-0.2-0.2-0.2-0.3c-0.1-0.1-0.1-0.3-0.1-0.4c0-0.1,0-0.3,0.1-0.4c0.1-0.2,0.2-0.3,0.4-0.4c0.2-0.1,0.5-0.2,0.7-0.3   c0.4-0.1,0.7-0.1,1.1-0.1v-0.2c0-0.2,0-0.4-0.2-0.6c-0.1-0.1-0.3-0.2-0.5-0.2c-0.1,0-0.2,0-0.4,0.1c-0.1,0-0.2,0.1-0.2,0.1   l-0.2,0.1c-0.1,0-0.1,0.1-0.2,0.1c-0.1,0-0.1,0-0.2-0.1c-0.1,0-0.1-0.1-0.1-0.1l-0.2-0.3c0.4-0.4,1-0.6,1.6-0.6   c0.2,0,0.4,0,0.6,0.1c0.2,0.1,0.3,0.2,0.4,0.3c0.1,0.1,0.2,0.3,0.3,0.5c0.1,0.2,0.1,0.4,0.1,0.6L56.6,139.2L56.6,139.2z    M54.8,138.6c0.1,0,0.2,0,0.2,0l0.2-0.1c0.1,0,0.1-0.1,0.2-0.1c0.1,0,0.1-0.1,0.2-0.2v-0.7c-0.2,0-0.4,0-0.7,0.1   c-0.2,0-0.3,0.1-0.4,0.1c-0.1,0-0.2,0.1-0.2,0.2c0,0.1-0.1,0.1-0.1,0.2c0,0.1,0,0.3,0.1,0.4C54.5,138.5,54.6,138.6,54.8,138.6z"></path>
	<path class="st13" d="M60.2,136.2L60.2,136.2c-0.1,0.1-0.2,0.1-0.2,0.1c0,0-0.1,0-0.1,0l-0.2-0.1c-0.1,0-0.1-0.1-0.2-0.1   c-0.1,0-0.2-0.1-0.3-0.1c-0.1,0-0.3,0-0.4,0.1c-0.1,0.1-0.2,0.1-0.3,0.2c-0.1,0.1-0.1,0.2-0.2,0.4c0,0.2-0.1,0.4-0.1,0.5   c0,0.2,0,0.4,0.1,0.6c0,0.1,0.1,0.3,0.2,0.4c0.1,0.1,0.2,0.2,0.3,0.2c0.1,0.1,0.3,0.1,0.4,0.1c0.1,0,0.2,0,0.4-0.1   c0.1,0,0.1-0.1,0.2-0.1l0.2-0.1c0.1,0,0.1-0.1,0.2-0.1c0.1,0,0.1,0,0.2,0.1l0.3,0.3c-0.1,0.1-0.2,0.2-0.3,0.3   c-0.1,0.1-0.2,0.1-0.4,0.2c-0.1,0-0.3,0.1-0.4,0.1c-0.1,0-0.3,0-0.4,0c-0.2,0-0.5-0.1-0.7-0.1c-0.2-0.1-0.4-0.2-0.6-0.4   c-0.2-0.2-0.3-0.4-0.4-0.6c-0.1-0.3-0.1-0.6-0.1-0.8c0-0.3,0-0.5,0.1-0.8c0.1-0.2,0.2-0.4,0.4-0.6c0.2-0.2,0.4-0.3,0.6-0.4   c0.3-0.1,0.5-0.2,0.8-0.1c0.3,0,0.5,0.1,0.8,0.1c0.2,0.1,0.4,0.2,0.6,0.4L60.2,136.2z"></path>
	<path class="st13" d="M62,133.6v3.2h0.2c0,0,0.1,0,0.1,0c0,0,0.1-0.1,0.1-0.1l1-1.2c0-0.1,0.1-0.1,0.1-0.1c0.1,0,0.1,0,0.2,0h0.8   l-1.2,1.4c0,0.1-0.1,0.1-0.1,0.1c0,0-0.1,0.1-0.1,0.1c0.1,0,0.1,0.1,0.1,0.1c0,0.1,0.1,0.1,0.1,0.2l1.3,1.9h-0.8   c-0.1,0-0.1,0-0.2,0c-0.1,0-0.1-0.1-0.1-0.1l-1-1.5c0,0-0.1-0.1-0.1-0.1c-0.1,0-0.1,0-0.2,0H62v1.8h-0.9v-5.6h1L62,133.6z"></path>
	<path class="st13" d="M66.6,135.3c0.2,0,0.5,0,0.7,0.1c0.2,0.1,0.4,0.2,0.5,0.3c0.3,0.4,0.5,0.8,0.4,1.3v0.2c0,0,0,0.1,0,0.1   s0,0.1-0.1,0.1s-0.1,0-0.1,0h-2.4c0,0.3,0.1,0.6,0.3,0.9c0.2,0.2,0.5,0.3,0.7,0.3c0.1,0,0.2,0,0.4,0l0.3-0.1l0.2-0.1   c0.1,0,0.1-0.1,0.2-0.1c0,0,0.1,0,0.1,0c0,0,0.1,0,0.1,0.1l0.3,0.3c-0.1,0.1-0.2,0.2-0.3,0.3c-0.1,0.1-0.3,0.2-0.4,0.2   c-0.1,0-0.3,0.1-0.4,0.1c-0.1,0-0.3,0-0.4,0c-0.3,0-0.5-0.1-0.8-0.1c-0.2-0.1-0.4-0.2-0.6-0.4c-0.2-0.2-0.3-0.4-0.4-0.6   c-0.1-0.3-0.2-0.6-0.1-0.9c0-0.3,0-0.5,0.1-0.8c0.1-0.2,0.2-0.4,0.4-0.6c0.2-0.2,0.4-0.3,0.6-0.4C66,135.3,66.3,135.3,66.6,135.3z    M66.6,135.9c-0.2,0-0.5,0.1-0.6,0.2c-0.2,0.2-0.3,0.4-0.3,0.6h1.7c0-0.1,0-0.2-0.1-0.3c0-0.2-0.2-0.4-0.4-0.5   C66.8,135.9,66.7,135.9,66.6,135.9L66.6,135.9z"></path>
	<path class="st13" d="M71.7,139.2c-0.1,0-0.2-0.1-0.2-0.2l-0.1-0.4l-0.2,0.2c-0.1,0.1-0.2,0.2-0.3,0.2c-0.1,0-0.2,0.1-0.3,0.1   c-0.1,0-0.3,0-0.4,0c-0.4,0-0.8-0.2-1-0.5c-0.1-0.2-0.2-0.4-0.3-0.6c-0.1-0.3-0.1-0.6-0.1-0.8c0-0.3,0-0.5,0.1-0.8   c0.1-0.2,0.2-0.4,0.3-0.6c0.1-0.2,0.3-0.3,0.5-0.4c0.2-0.1,0.4-0.2,0.7-0.1c0.2,0,0.4,0,0.6,0.1c0.2,0.1,0.3,0.2,0.4,0.3v-2h0.9   v5.6L71.7,139.2L71.7,139.2z M70.5,138.5c0.2,0,0.3,0,0.5-0.1c0.1-0.1,0.3-0.2,0.4-0.3v-1.8c-0.1-0.1-0.2-0.2-0.3-0.3   c-0.2-0.1-0.5-0.1-0.8,0c-0.1,0.1-0.2,0.1-0.3,0.2c-0.1,0.1-0.1,0.3-0.2,0.4c0,0.2-0.1,0.4-0.1,0.6c0,0.2,0,0.4,0.1,0.6   c0,0.1,0.1,0.3,0.2,0.4c0.1,0.1,0.1,0.2,0.2,0.2C70.3,138.5,70.4,138.5,70.5,138.5L70.5,138.5z"></path>
	<path class="st13" d="M75.8,136h0.3c0.1,0,0.1,0,0.2,0c0.1,0,0.1-0.1,0.2-0.1L78,134c0-0.1,0.1-0.1,0.2-0.2c0.1,0,0.2-0.1,0.2-0.1   h0.9l-1.8,2.3l-0.2,0.2c0,0-0.1,0.1-0.2,0.1c0.1,0,0.2,0.1,0.2,0.1c0.1,0.1,0.1,0.1,0.2,0.2l1.9,2.6h-0.9c-0.1,0-0.2,0-0.3-0.1   c-0.1,0-0.1-0.1-0.1-0.1l-1.5-2c0-0.1-0.1-0.1-0.2-0.1c-0.1,0-0.2-0.1-0.3-0.1h-0.3v2.4h-1v-5.4h1L75.8,136L75.8,136z"></path>
	<path class="st13" d="M81.4,135.3c0.2,0,0.5,0,0.7,0.1c0.2,0.1,0.4,0.2,0.5,0.3c0.3,0.4,0.5,0.8,0.4,1.3v0.2c0,0,0,0.1,0,0.1   s0,0.1-0.1,0.1s-0.1,0-0.1,0h-2.4c0,0.3,0.1,0.6,0.3,0.9c0.2,0.2,0.5,0.3,0.7,0.3c0.1,0,0.3,0,0.4-0.1l0.3-0.1l0.2-0.1   c0.1,0,0.1-0.1,0.2-0.1c0,0,0.1,0,0.1,0c0,0,0.1,0,0.1,0.1l0.3,0.3c-0.1,0.1-0.2,0.2-0.3,0.3c-0.1,0.1-0.3,0.2-0.4,0.2   c-0.1,0-0.3,0.1-0.4,0.1c-0.1,0-0.3,0-0.4,0c-0.3,0-0.5-0.1-0.8-0.1c-0.2-0.1-0.4-0.2-0.6-0.4c-0.2-0.2-0.3-0.4-0.4-0.6   c-0.2-0.5-0.2-1.1,0-1.6c0.1-0.2,0.2-0.4,0.4-0.6c0.2-0.2,0.4-0.3,0.6-0.4C80.9,135.3,81.2,135.2,81.4,135.3z M81.4,135.9   c-0.2,0-0.5,0.1-0.6,0.2c-0.2,0.2-0.3,0.4-0.3,0.6h1.7c0-0.1,0-0.2-0.1-0.3c0-0.2-0.2-0.4-0.4-0.5   C81.6,135.9,81.5,135.9,81.4,135.9L81.4,135.9z"></path>
	<path class="st13" d="M85.1,140.3c0,0.1-0.1,0.1-0.1,0.1c-0.1,0-0.1,0.1-0.2,0.1h-0.7l0.7-1.5l-1.6-3.6H84c0.1,0,0.1,0,0.2,0.1   l0.1,0.1l0.8,2c0,0.1,0.1,0.1,0.1,0.2c0,0.1,0,0.1,0.1,0.2c0-0.1,0.1-0.1,0.1-0.2l0.1-0.2l0.8-2c0,0,0.1-0.1,0.1-0.1   c0.1,0,0.1-0.1,0.2-0.1h0.8L85.1,140.3z"></path>
	<path class="st13" d="M87.2,135.3H88c0.1,0,0.1,0,0.2,0.1c0,0,0.1,0.1,0.1,0.1l0.6,2.1l0.1,0.3c0,0.1,0,0.2,0.1,0.3   c0-0.1,0.1-0.2,0.1-0.3c0-0.1,0.1-0.2,0.1-0.3l0.6-2.1c0,0,0-0.1,0.1-0.1c0.1,0,0.1-0.1,0.2-0.1h0.4c0.1,0,0.1,0,0.2,0.1   c0,0,0.1,0.1,0.1,0.1l0.6,2.1c0,0.1,0.1,0.2,0.1,0.3l0.1,0.3c0-0.1,0-0.2,0.1-0.3l0.1-0.3l0.6-2c0-0.1,0.1-0.1,0.1-0.1   c0.1,0,0.1-0.1,0.2-0.1h0.7l-1.2,3.9h-0.8c-0.1,0-0.2-0.1-0.2-0.2l-0.7-2.2c0-0.1-0.1-0.1-0.1-0.2c0-0.1,0-0.1-0.1-0.2   c0,0.1,0,0.1-0.1,0.2s0,0.1-0.1,0.2l-0.7,2.2c0,0.1-0.1,0.2-0.2,0.2h-0.7L87.2,135.3z"></path>
	<path class="st13" d="M95.3,135.3c0.3,0,0.5,0.1,0.8,0.1c0.2,0.1,0.4,0.2,0.6,0.4c0.2,0.2,0.3,0.4,0.4,0.6c0.2,0.5,0.2,1.1,0,1.6   c-0.1,0.2-0.2,0.4-0.4,0.6c-0.2,0.2-0.4,0.3-0.6,0.4c-0.5,0.2-1.1,0.2-1.6,0c-0.2-0.1-0.4-0.2-0.6-0.4c-0.2-0.2-0.3-0.4-0.4-0.6   c-0.2-0.5-0.2-1.1,0-1.6c0.1-0.2,0.2-0.4,0.4-0.6c0.2-0.2,0.4-0.3,0.6-0.4C94.7,135.3,95,135.3,95.3,135.3z M95.3,138.5   c0.3,0,0.5-0.1,0.7-0.3c0.3-0.6,0.3-1.3,0-1.9c-0.2-0.2-0.4-0.3-0.7-0.3c-0.3,0-0.6,0.1-0.7,0.3c-0.3,0.6-0.3,1.3,0,1.9   C94.7,138.4,95,138.5,95.3,138.5L95.3,138.5z"></path>
	<path class="st13" d="M97.9,139.2v-3.9h0.6c0.1,0,0.1,0,0.2,0.1c0,0,0.1,0.1,0.1,0.2l0.1,0.5c0.1-0.2,0.3-0.4,0.5-0.6   c0.2-0.1,0.4-0.2,0.6-0.2c0.2,0,0.3,0,0.5,0.1l-0.1,0.7c0,0,0,0.1-0.1,0.1s-0.1,0-0.1,0c-0.1,0-0.1,0-0.2,0c-0.1,0-0.2,0-0.2,0   c-0.2,0-0.4,0.1-0.5,0.2c-0.2,0.1-0.3,0.3-0.3,0.5v2.4L97.9,139.2L97.9,139.2z"></path>
	<path class="st13" d="M103.7,139.2c-0.1,0-0.2-0.1-0.2-0.2l-0.1-0.4l-0.2,0.2c-0.1,0.1-0.2,0.2-0.3,0.2c-0.1,0-0.2,0.1-0.3,0.1   c-0.1,0-0.3,0-0.4,0c-0.4,0-0.8-0.2-1-0.5c-0.1-0.2-0.2-0.4-0.3-0.6c-0.1-0.3-0.1-0.6-0.1-0.8c0-0.3,0-0.5,0.1-0.8   c0.1-0.2,0.2-0.4,0.3-0.6c0.1-0.2,0.3-0.3,0.5-0.4c0.2-0.1,0.4-0.2,0.7-0.1c0.2,0,0.4,0,0.6,0.1c0.2,0.1,0.3,0.2,0.4,0.3v-2h0.9   v5.6L103.7,139.2L103.7,139.2z M102.5,138.5c0.2,0,0.3,0,0.5-0.1c0.1-0.1,0.3-0.2,0.4-0.3v-1.7c-0.1-0.1-0.2-0.2-0.3-0.3   c-0.2-0.1-0.5-0.1-0.8,0c-0.1,0.1-0.2,0.1-0.3,0.2c-0.1,0.1-0.2,0.3-0.2,0.4c0,0.2-0.1,0.4-0.1,0.6c0,0.2,0,0.4,0.1,0.6   c0,0.1,0.1,0.3,0.2,0.4c0.1,0.1,0.1,0.2,0.2,0.2C102.3,138.5,102.3,138.5,102.5,138.5L102.5,138.5z"></path>
	<path class="st13" d="M107.5,136.1L107.5,136.1c-0.1,0.1-0.1,0.1-0.2,0.1c0,0-0.1,0-0.1,0l-0.2-0.1l-0.2-0.1c-0.1,0-0.2,0-0.3,0   c-0.1,0-0.3,0-0.4,0.1c-0.1,0.1-0.2,0.2-0.2,0.3c0,0.1,0,0.1,0.1,0.2c0.1,0.1,0.1,0.1,0.2,0.1c0.1,0.1,0.2,0.1,0.3,0.1l0.3,0.1   c0.1,0,0.2,0.1,0.3,0.1c0.1,0,0.2,0.1,0.3,0.2c0.1,0.1,0.2,0.2,0.2,0.3c0.1,0.1,0.1,0.3,0.1,0.4c0,0.2,0,0.3-0.1,0.5   c-0.1,0.2-0.2,0.3-0.3,0.4c-0.1,0.1-0.3,0.2-0.5,0.3c-0.3,0.1-0.7,0.1-1,0.1l-0.4-0.1c-0.1-0.1-0.2-0.1-0.3-0.2   c-0.1-0.1-0.2-0.1-0.2-0.2l0.2-0.4l0.1-0.1c0,0,0.1,0,0.1,0c0.1,0,0.1,0,0.2,0.1l0.2,0.1l0.2,0.1c0.1,0,0.2,0.1,0.3,0.1   c0.1,0,0.2,0,0.3,0c0.1,0,0.1-0.1,0.2-0.1c0.1,0,0.1-0.1,0.1-0.1c0-0.1,0-0.1,0-0.2c0-0.1,0-0.2-0.1-0.2c-0.1-0.1-0.1-0.1-0.2-0.1   c-0.1,0-0.2-0.1-0.3-0.1l-0.3-0.1c-0.1,0-0.2-0.1-0.3-0.1c-0.1,0-0.2-0.1-0.3-0.2c-0.1-0.1-0.2-0.2-0.2-0.3c-0.1-0.3-0.1-0.6,0-0.9   c0.1-0.1,0.2-0.3,0.3-0.4c0.1-0.1,0.3-0.2,0.4-0.2c0.2-0.1,0.4-0.1,0.6-0.1c0.3,0,0.5,0,0.7,0.1c0.2,0.1,0.4,0.2,0.5,0.3   L107.5,136.1z"></path>
	<path class="st13" d="M124.3,131.4l0.1,0.2l0.1-0.2c0-0.1,0-0.1,0.1-0.2l1.3-2.5c0,0,0-0.1,0.1-0.1s0,0,0.1,0h0.8v4.4h-0.7v-3.2   l-1.3,2.5c0,0.1-0.1,0.1-0.1,0.1c-0.1,0-0.1,0.1-0.2,0.1h-0.1c-0.1,0-0.1,0-0.2-0.1c-0.1,0-0.1-0.1-0.1-0.1l-1.4-2.5   c0,0.1,0,0.1,0,0.2c0,0.1,0,0.1,0,0.2v2.9H122v-4.4h0.8c0,0,0,0,0.1,0c0,0,0,0.1,0.1,0.1l1.3,2.5   C124.3,131.3,124.3,131.3,124.3,131.4z"></path>
	<path class="st13" d="M129,129.8c0.2,0,0.4,0,0.6,0.1c0.2,0.1,0.4,0.2,0.5,0.3c0.1,0.1,0.3,0.3,0.3,0.5c0.1,0.4,0.1,0.9,0,1.3   c-0.1,0.2-0.2,0.4-0.3,0.5c-0.1,0.1-0.3,0.3-0.5,0.3c-0.4,0.1-0.9,0.1-1.3,0c-0.2-0.1-0.4-0.2-0.5-0.3c-0.1-0.1-0.3-0.3-0.3-0.5   c-0.1-0.4-0.1-0.9,0-1.3c0.1-0.2,0.2-0.4,0.3-0.5c0.1-0.1,0.3-0.3,0.5-0.3C128.6,129.9,128.8,129.8,129,129.8z M129,132.5   c0.2,0,0.4-0.1,0.6-0.2c0.1-0.2,0.2-0.5,0.2-0.8c0-0.3-0.1-0.5-0.2-0.8c-0.1-0.2-0.4-0.3-0.6-0.3c-0.2,0-0.5,0.1-0.6,0.3   c-0.1,0.2-0.2,0.5-0.2,0.8c0,0.3,0.1,0.5,0.2,0.8C128.6,132.4,128.8,132.5,129,132.5z"></path>
	<path class="st13" d="M132.6,133h-0.7l-1.3-3.1h0.6c0,0,0.1,0,0.1,0c0,0,0.1,0.1,0.1,0.1l0.6,1.7c0,0.1,0.1,0.2,0.1,0.3   c0,0.1,0.1,0.2,0.1,0.3c0-0.1,0-0.2,0.1-0.3l0.1-0.3l0.6-1.7c0,0,0-0.1,0.1-0.1c0,0,0.1,0,0.1,0h0.6L132.6,133z"></path>
	<path class="st13" d="M135.5,129.8c0.2,0,0.4,0,0.6,0.1c0.2,0.1,0.3,0.2,0.4,0.3c0.3,0.3,0.4,0.7,0.4,1.1v0.1c0,0,0,0.1,0,0.1   c0,0,0,0-0.1,0.1h-2c0,0.3,0.1,0.5,0.2,0.7c0.2,0.1,0.4,0.2,0.6,0.2c0.1,0,0.2,0,0.3,0l0.2-0.1l0.2-0.1l0.1-0.1c0,0,0.1,0,0.1,0   c0,0,0.1,0,0.1,0.1l0.2,0.3c-0.1,0.1-0.2,0.2-0.3,0.2l-0.3,0.2l-0.3,0.1c-0.1,0-0.2,0-0.3,0c-0.2,0-0.4,0-0.6-0.1   c-0.2-0.1-0.4-0.2-0.5-0.3c-0.1-0.2-0.3-0.3-0.3-0.5c-0.1-0.4-0.1-0.9,0-1.3c0.1-0.2,0.2-0.4,0.3-0.5c0.1-0.1,0.3-0.3,0.5-0.3   C135.1,129.9,135.3,129.8,135.5,129.8z M135.5,130.4c-0.2,0-0.4,0.1-0.5,0.2c-0.1,0.1-0.2,0.3-0.2,0.5h1.4c0-0.1,0-0.2,0-0.3   c0-0.1-0.1-0.2-0.1-0.2c-0.1-0.1-0.1-0.1-0.2-0.1C135.8,130.4,135.7,130.3,135.5,130.4z"></path>
	<path class="st13" d="M139.8,133c-0.1,0-0.2-0.1-0.2-0.1l-0.1-0.3c-0.1,0.1-0.1,0.1-0.2,0.2c-0.1,0.1-0.1,0.1-0.2,0.1   c-0.1,0-0.2,0.1-0.3,0.1c-0.1,0-0.2,0-0.3,0c-0.3,0-0.6-0.1-0.8-0.4c-0.1-0.2-0.2-0.3-0.2-0.5c-0.1-0.2-0.1-0.5-0.1-0.7   c0-0.2,0-0.4,0.1-0.6c0.1-0.2,0.2-0.4,0.3-0.5c0.1-0.1,0.3-0.3,0.4-0.3c0.2-0.1,0.4-0.1,0.6-0.1c0.2,0,0.3,0,0.5,0.1   c0.1,0.1,0.2,0.1,0.3,0.2v-1.6h0.8v4.6L139.8,133z M138.8,132.5c0.1,0,0.3,0,0.4-0.1c0.1-0.1,0.2-0.2,0.3-0.3v-1.4   c-0.1-0.1-0.2-0.2-0.3-0.2c-0.1,0-0.2-0.1-0.3-0.1c-0.1,0-0.2,0-0.3,0.1c-0.1,0.1-0.2,0.1-0.2,0.2c-0.1,0.1-0.1,0.2-0.1,0.3   c0,0.2-0.1,0.3-0.1,0.5c0,0.2,0,0.3,0.1,0.5c0,0.1,0.1,0.2,0.1,0.3c0,0.1,0.1,0.1,0.2,0.2C138.6,132.5,138.7,132.5,138.8,132.5   L138.8,132.5z"></path>
	<path class="st13" d="M142.9,129.9v2c0,0.2,0,0.3,0.1,0.4c0.1,0.1,0.2,0.2,0.4,0.2c0.1,0,0.2,0,0.4-0.1c0.1-0.1,0.2-0.1,0.3-0.2   v-2.3h0.8v3.1h-0.5c-0.1,0-0.2-0.1-0.2-0.1l-0.1-0.2l-0.2,0.2c-0.1,0.1-0.1,0.1-0.2,0.1l-0.2,0.1c-0.1,0-0.2,0-0.3,0   c-0.2,0-0.3,0-0.4-0.1c-0.1,0-0.3-0.1-0.3-0.2c-0.1-0.1-0.2-0.2-0.2-0.4c-0.1-0.2-0.1-0.3-0.1-0.5v-2L142.9,129.9L142.9,129.9z"></path>
	<path class="st13" d="M145.7,134.1v-4.2h0.5c0,0,0.1,0,0.1,0c0,0,0.1,0.1,0.1,0.1l0.1,0.3c0.1-0.1,0.3-0.3,0.5-0.4   c0.2-0.1,0.4-0.1,0.6-0.1c0.2,0,0.3,0,0.5,0.1c0.1,0.1,0.3,0.2,0.4,0.3c0.1,0.2,0.2,0.3,0.2,0.5c0.1,0.2,0.1,0.5,0.1,0.7   c0,0.2,0,0.4-0.1,0.6c-0.1,0.2-0.2,0.4-0.3,0.5c-0.1,0.1-0.3,0.3-0.4,0.3c-0.2,0.1-0.4,0.1-0.6,0.1c-0.2,0-0.3,0-0.4-0.1   c-0.1-0.1-0.2-0.1-0.3-0.2v1.3L145.7,134.1L145.7,134.1z M147.2,130.4c-0.1,0-0.3,0-0.4,0.1c-0.1,0.1-0.2,0.2-0.3,0.3v1.4   c0.1,0.1,0.2,0.2,0.3,0.2c0.1,0,0.2,0.1,0.3,0.1c0.1,0,0.2,0,0.3-0.1c0.1-0.1,0.2-0.1,0.2-0.2c0.1-0.1,0.1-0.2,0.1-0.3   c0-0.2,0.1-0.3,0.1-0.5c0-0.2,0-0.3-0.1-0.5c0-0.1-0.1-0.2-0.1-0.3c0-0.1-0.1-0.1-0.2-0.2C147.3,130.4,147.3,130.4,147.2,130.4   L147.2,130.4z"></path>
	<path class="st13" d="M168.8,131.4l0.1,0.2l0.1-0.2c0-0.1,0-0.1,0.1-0.2l1.3-2.5c0,0,0-0.1,0.1-0.1s0,0,0.1,0h0.8v4.4h-0.7v-3.2   l-1.3,2.5c0,0.1-0.1,0.1-0.1,0.1c-0.1,0-0.1,0.1-0.2,0.1h-0.1c-0.1,0-0.1,0-0.2-0.1c-0.1,0-0.1-0.1-0.1-0.1l-1.4-2.5   c0,0.1,0,0.1,0,0.2c0,0.1,0,0.1,0,0.2v2.9h-0.7v-4.4h0.8c0,0,0,0,0.1,0c0,0,0,0.1,0.1,0.1l1.3,2.5   C168.7,131.3,168.8,131.3,168.8,131.4z"></path>
	<path class="st13" d="M173.5,129.8c0.2,0,0.4,0,0.6,0.1c0.4,0.1,0.7,0.4,0.8,0.8c0.1,0.4,0.1,0.9,0,1.3c-0.1,0.2-0.2,0.4-0.3,0.5   c-0.1,0.1-0.3,0.3-0.5,0.3c-0.4,0.1-0.9,0.1-1.3,0c-0.2-0.1-0.4-0.2-0.5-0.3c-0.1-0.1-0.3-0.3-0.3-0.5c-0.1-0.4-0.1-0.9,0-1.3   c0.1-0.2,0.2-0.4,0.3-0.5c0.1-0.1,0.3-0.3,0.5-0.3C173.1,129.9,173.3,129.8,173.5,129.8z M173.5,132.5c0.2,0,0.5-0.1,0.6-0.3   c0.1-0.2,0.2-0.5,0.2-0.8c0-0.3-0.1-0.5-0.2-0.8c-0.1-0.2-0.4-0.3-0.6-0.3c-0.2,0-0.5,0.1-0.6,0.3c-0.1,0.2-0.2,0.5-0.2,0.8   c0,0.3,0.1,0.5,0.2,0.8C173,132.4,173.3,132.5,173.5,132.5z"></path>
	<path class="st13" d="M177.1,133h-0.7l-1.3-3.1h0.6c0,0,0.1,0,0.1,0c0,0,0.1,0.1,0.1,0.1l0.6,1.7c0,0.1,0.1,0.2,0.1,0.3   c0,0.1,0.1,0.2,0.1,0.3c0-0.1,0-0.2,0.1-0.3l0.1-0.3l0.6-1.7c0,0,0-0.1,0.1-0.1c0,0,0.1,0,0.1,0h0.6L177.1,133z"></path>
	<path class="st13" d="M180,129.8c0.2,0,0.4,0,0.6,0.1c0.2,0.1,0.3,0.2,0.4,0.3c0.3,0.3,0.4,0.7,0.4,1.1v0.1c0,0,0,0.1,0,0.1   c0,0,0,0-0.1,0.1h-2c0,0.3,0.1,0.5,0.2,0.7c0.2,0.2,0.4,0.2,0.6,0.2c0.1,0,0.2,0,0.3,0l0.2-0.1l0.2-0.1l0.1-0.1c0,0,0.1,0,0.1,0   c0,0,0.1,0,0.1,0.1l0.2,0.3c-0.1,0.1-0.2,0.2-0.3,0.2l-0.3,0.2l-0.3,0.1c-0.1,0-0.2,0-0.3,0c-0.2,0-0.4,0-0.6-0.1   c-0.2-0.1-0.4-0.2-0.5-0.3c-0.1-0.2-0.3-0.3-0.3-0.5c-0.1-0.2-0.1-0.5-0.1-0.7c0-0.2,0-0.4,0.1-0.6c0.1-0.2,0.2-0.4,0.3-0.5   c0.1-0.1,0.3-0.3,0.5-0.3C179.6,129.9,179.8,129.8,180,129.8z M180,130.4c-0.2,0-0.4,0.1-0.5,0.2c-0.1,0.1-0.2,0.3-0.2,0.5h1.4   c0-0.1,0-0.2,0-0.3c0-0.1-0.1-0.2-0.1-0.2c-0.1-0.1-0.1-0.1-0.2-0.1C180.3,130.4,180.2,130.4,180,130.4L180,130.4z"></path>
	<path class="st13" d="M184.2,133c-0.1,0-0.2-0.1-0.2-0.1l-0.1-0.3c-0.1,0.1-0.1,0.1-0.2,0.2c-0.1,0.1-0.1,0.1-0.2,0.1   c-0.1,0-0.2,0.1-0.3,0.1c-0.1,0-0.2,0-0.3,0c-0.3,0-0.6-0.1-0.8-0.4c-0.1-0.2-0.2-0.3-0.2-0.5c-0.1-0.2-0.1-0.5-0.1-0.7   c0-0.2,0-0.4,0.1-0.6c0.1-0.2,0.2-0.4,0.3-0.5c0.1-0.1,0.3-0.3,0.4-0.3c0.2-0.1,0.4-0.1,0.6-0.1c0.2,0,0.3,0,0.5,0.1   c0.1,0.1,0.2,0.1,0.3,0.2v-1.6h0.8v4.6L184.2,133z M183.2,132.5c0.1,0,0.3,0,0.4-0.1c0.1-0.1,0.2-0.2,0.3-0.3v-1.4   c-0.1-0.1-0.2-0.2-0.3-0.2c-0.1,0-0.2-0.1-0.3-0.1c-0.1,0-0.2,0-0.3,0.1c-0.1,0.1-0.2,0.1-0.2,0.2c-0.1,0.1-0.1,0.2-0.1,0.3   c0,0.2-0.1,0.3-0.1,0.5c0,0.2,0,0.3,0.1,0.5c0,0.1,0.1,0.2,0.1,0.3c0,0.1,0.1,0.1,0.2,0.2C183,132.5,183.1,132.5,183.2,132.5   L183.2,132.5z"></path>
	<path class="st13" d="M188.9,133c-0.1,0-0.2-0.1-0.2-0.1l-0.1-0.3c-0.1,0.1-0.1,0.1-0.2,0.2c-0.1,0.1-0.1,0.1-0.2,0.1   c-0.1,0-0.2,0.1-0.3,0.1c-0.1,0-0.2,0-0.3,0c-0.3,0-0.6-0.1-0.8-0.4c-0.1-0.2-0.2-0.3-0.2-0.5c-0.1-0.2-0.1-0.5-0.1-0.7   c0-0.2,0-0.4,0.1-0.6c0.1-0.2,0.2-0.4,0.3-0.5c0.1-0.1,0.3-0.3,0.4-0.3c0.2-0.1,0.4-0.1,0.6-0.1c0.2,0,0.3,0,0.5,0.1   c0.1,0.1,0.2,0.1,0.3,0.2v-1.6h0.8v4.6L188.9,133z M187.9,132.5c0.1,0,0.3,0,0.4-0.1c0.1-0.1,0.2-0.2,0.3-0.3v-1.4   c-0.1-0.1-0.2-0.2-0.3-0.2c-0.1,0-0.2-0.1-0.3-0.1c-0.1,0-0.2,0-0.3,0.1c-0.1,0.1-0.2,0.1-0.2,0.2c-0.1,0.1-0.1,0.2-0.1,0.3   c0,0.2-0.1,0.3-0.1,0.5c0,0.2,0,0.3,0.1,0.5c0,0.1,0.1,0.2,0.1,0.3c0,0.1,0.1,0.1,0.2,0.2C187.7,132.5,187.8,132.5,187.9,132.5   L187.9,132.5z"></path>
	<path class="st13" d="M191.6,129.8c0.2,0,0.4,0,0.6,0.1c0.2,0.1,0.4,0.2,0.5,0.3c0.1,0.1,0.3,0.3,0.3,0.5c0.1,0.4,0.1,0.9,0,1.3   c-0.1,0.2-0.2,0.4-0.3,0.5c-0.1,0.1-0.3,0.3-0.5,0.3c-0.4,0.1-0.9,0.1-1.3,0c-0.2-0.1-0.4-0.2-0.5-0.3c-0.1-0.1-0.3-0.3-0.3-0.5   c-0.1-0.4-0.1-0.9,0-1.3c0.1-0.4,0.4-0.7,0.8-0.8C191.1,129.9,191.3,129.8,191.6,129.8z M191.6,132.5c0.2,0,0.4-0.1,0.6-0.2   c0.1-0.2,0.2-0.5,0.2-0.8c0-0.3-0.1-0.5-0.2-0.8c-0.1-0.2-0.4-0.3-0.6-0.3c-0.2,0-0.5,0.1-0.6,0.3c-0.1,0.2-0.2,0.5-0.2,0.8   c0,0.3,0.1,0.5,0.2,0.8C191.1,132.4,191.3,132.5,191.6,132.5z"></path>
	<path class="st13" d="M193.3,129.9h0.6c0,0,0.1,0,0.1,0c0,0,0.1,0.1,0.1,0.1l0.5,1.7c0,0.1,0.1,0.2,0.1,0.3l0.1,0.2l0.1-0.2   c0-0.1,0.1-0.2,0.1-0.3l0.5-1.7c0,0,0-0.1,0.1-0.1c0,0,0.1,0,0.1,0h0.3c0,0,0.1,0,0.1,0c0,0,0.1,0.1,0.1,0.1l0.5,1.7l0.1,0.2   l0.1,0.2c0-0.1,0-0.2,0.1-0.2s0-0.2,0.1-0.3l0.5-1.7c0,0,0-0.1,0.1-0.1c0,0,0.1,0,0.1,0h0.6l-1,3.1h-0.6c-0.1,0-0.1,0-0.1-0.1   c0,0,0,0,0,0l-0.6-1.8c0-0.1,0-0.1-0.1-0.2c0-0.1,0-0.1,0-0.2c0,0.1,0,0.1,0,0.2c0,0.1,0,0.1-0.1,0.2l-0.6,1.8   c0,0.1-0.1,0.1-0.2,0.1h-0.6L193.3,129.9z"></path>
	<path class="st13" d="M198.6,133v-3.2h0.5c0.1,0,0.2,0.1,0.2,0.1l0.1,0.2l0.2-0.2c0.1-0.1,0.1-0.1,0.2-0.1l0.2-0.1   c0.1,0,0.2,0,0.3,0c0.2,0,0.3,0,0.5,0.1c0.1,0,0.3,0.1,0.3,0.2c0.1,0.1,0.2,0.2,0.2,0.4c0.1,0.2,0.1,0.3,0.1,0.5v2h-0.8v-2   c0-0.2,0-0.3-0.1-0.4c-0.1-0.1-0.2-0.2-0.4-0.2c-0.1,0-0.2,0-0.4,0.1c-0.1,0.1-0.2,0.1-0.3,0.2v2.3L198.6,133z"></path>
	<path class="st13" d="M224.6,114h0.2c0.1,0,0.1,0,0.2,0l0.2-0.1l1.5-1.9c0-0.1,0.1-0.1,0.2-0.2c0.1,0,0.2-0.1,0.2-0.1h0.9l-1.8,2.3   l-0.2,0.2c0,0-0.1,0.1-0.2,0.1c0.1,0,0.2,0.1,0.2,0.1c0.1,0.1,0.1,0.1,0.2,0.2l1.9,2.6h-0.9c-0.1,0-0.2,0-0.3-0.1   c-0.1,0-0.1-0.1-0.1-0.1l-1.5-2c0-0.1-0.1-0.1-0.2-0.1c-0.1,0-0.2-0.1-0.3-0.1h-0.3v2.4h-1v-5.4h1L224.6,114L224.6,114z"></path>
	<path class="st13" d="M230.2,113.2c0.2,0,0.5,0,0.7,0.1c0.2,0.1,0.4,0.2,0.5,0.3c0.1,0.2,0.3,0.4,0.3,0.6c0.1,0.2,0.1,0.5,0.1,0.7   v0.2c0,0,0,0.1,0,0.1s0,0.1-0.1,0.1s-0.1,0-0.1,0h-2.4c0,0.3,0.1,0.6,0.3,0.9c0.2,0.2,0.5,0.3,0.7,0.3c0.1,0,0.3,0,0.4-0.1l0.3-0.1   l0.2-0.1c0.1,0,0.1-0.1,0.2-0.1c0,0,0.1,0,0.1,0c0,0,0.1,0,0.1,0.1l0.3,0.3c-0.1,0.1-0.2,0.2-0.4,0.3c-0.1,0.1-0.3,0.2-0.4,0.2   c-0.1,0-0.3,0.1-0.4,0.1c-0.1,0-0.3,0-0.4,0c-0.3,0-0.5-0.1-0.8-0.1c-0.2-0.1-0.4-0.2-0.6-0.4c-0.2-0.2-0.3-0.4-0.4-0.6   c-0.1-0.3-0.2-0.6-0.1-0.9c0-0.2,0.1-0.5,0.1-0.7c0.1-0.2,0.2-0.4,0.4-0.6c0.2-0.2,0.4-0.3,0.6-0.4   C229.7,113.2,229.9,113.2,230.2,113.2z M230.2,113.8c-0.2,0-0.5,0.1-0.6,0.2c-0.2,0.2-0.3,0.4-0.3,0.6h1.8c0-0.1,0-0.2-0.1-0.3   c0-0.2-0.2-0.4-0.4-0.5C230.5,113.8,230.4,113.8,230.2,113.8L230.2,113.8z"></path>
	<path class="st13" d="M233.9,118.2c0,0.1-0.1,0.1-0.1,0.1c-0.1,0-0.1,0.1-0.2,0.1h-0.7l0.7-1.5l-1.6-3.6h0.8c0.1,0,0.1,0,0.2,0.1   l0.1,0.1l0.8,2c0,0.1,0.1,0.1,0.1,0.2c0,0.1,0,0.1,0.1,0.2c0-0.1,0-0.1,0.1-0.2l0.1-0.2l0.8-2c0,0,0-0.1,0.1-0.1   c0.1,0,0.1-0.1,0.2-0.1h0.8L233.9,118.2z"></path>
	<path class="st13" d="M236.1,113.3h0.7c0.1,0,0.1,0,0.2,0.1c0,0,0.1,0.1,0.1,0.1l0.6,2.1l0.1,0.3c0,0.1,0,0.2,0.1,0.3   c0-0.1,0.1-0.2,0.1-0.3c0-0.1,0.1-0.2,0.1-0.3l0.6-2.1c0,0,0-0.1,0.1-0.1c0.1,0,0.1-0.1,0.2-0.1h0.4c0.1,0,0.1,0,0.2,0.1   c0,0,0.1,0.1,0.1,0.1l0.6,2.1c0,0.1,0.1,0.2,0.1,0.3l0.1,0.3c0-0.1,0-0.2,0.1-0.3l0.1-0.3l0.6-2c0-0.1,0.1-0.1,0.1-0.1   c0.1,0,0.1-0.1,0.2-0.1h0.7l-1.2,3.8h-0.8c-0.1,0-0.2-0.1-0.2-0.2l-0.7-2.2c0-0.1-0.1-0.1-0.1-0.2c0-0.1,0-0.1-0.1-0.2   c0,0.1,0,0.1-0.1,0.2s0,0.1-0.1,0.2l-0.7,2.2c0,0.1-0.1,0.2-0.2,0.2h-0.7L236.1,113.3z"></path>
	<path class="st13" d="M244.1,113.2c0.3,0,0.5,0.1,0.8,0.1c0.2,0.1,0.4,0.2,0.6,0.4c0.2,0.2,0.3,0.4,0.4,0.6c0.2,0.5,0.2,1.1,0,1.6   c-0.1,0.2-0.2,0.4-0.4,0.6c-0.2,0.2-0.4,0.3-0.6,0.4c-0.5,0.2-1.1,0.2-1.6,0c-0.2-0.1-0.4-0.2-0.6-0.4c-0.2-0.2-0.3-0.4-0.4-0.6   c-0.2-0.5-0.2-1.1,0-1.6c0.1-0.2,0.2-0.4,0.4-0.6c0.2-0.2,0.4-0.3,0.6-0.4C243.5,113.2,243.8,113.2,244.1,113.2z M244.1,116.5   c0.3,0,0.5-0.1,0.7-0.3c0.3-0.6,0.3-1.3,0-1.9c-0.2-0.2-0.4-0.3-0.7-0.3c-0.3,0-0.6,0.1-0.7,0.3c-0.3,0.6-0.3,1.3,0,1.9   C243.5,116.3,243.8,116.5,244.1,116.5z"></path>
	<path class="st13" d="M246.7,117.1v-3.9h0.5c0.1,0,0.1,0,0.2,0.1c0,0,0.1,0.1,0.1,0.2l0.1,0.5c0.1-0.2,0.3-0.4,0.5-0.6   c0.2-0.1,0.4-0.2,0.6-0.2c0.2,0,0.3,0,0.5,0.1l-0.1,0.7c0,0,0,0.1-0.1,0.1s-0.1,0-0.1,0c-0.1,0-0.1,0-0.2,0c-0.1,0-0.2,0-0.2,0   c-0.2,0-0.4,0.1-0.5,0.2c-0.2,0.1-0.3,0.3-0.3,0.5v2.4L246.7,117.1L246.7,117.1z"></path>
	<path class="st13" d="M252.5,117.1c-0.1,0-0.2-0.1-0.2-0.2l-0.1-0.4l-0.2,0.2c-0.1,0.1-0.2,0.2-0.3,0.2c-0.1,0-0.2,0.1-0.3,0.1   c-0.1,0-0.3,0-0.4,0c-0.4,0-0.8-0.2-1-0.5c-0.1-0.2-0.2-0.4-0.3-0.6c-0.1-0.3-0.1-0.6-0.1-0.8c0-0.3,0-0.5,0.1-0.8   c0.1-0.2,0.2-0.5,0.3-0.6c0.1-0.2,0.3-0.3,0.5-0.4c0.2-0.1,0.4-0.2,0.7-0.1c0.2,0,0.4,0,0.6,0.1c0.2,0.1,0.3,0.2,0.4,0.3v-2h0.9   v5.6L252.5,117.1L252.5,117.1z M251.3,116.4c0.2,0,0.3,0,0.5-0.1c0.1-0.1,0.3-0.2,0.4-0.3v-1.7c-0.1-0.1-0.2-0.2-0.3-0.3   c-0.2-0.1-0.5-0.1-0.8,0c-0.1,0.1-0.2,0.1-0.3,0.2c-0.1,0.1-0.2,0.3-0.2,0.4c0,0.2-0.1,0.4-0.1,0.6c0,0.2,0,0.4,0.1,0.6   c0,0.1,0.1,0.3,0.2,0.4c0.1,0.1,0.1,0.2,0.2,0.2C251.1,116.4,251.2,116.4,251.3,116.4L251.3,116.4z"></path>
	<path class="st13" d="M256.6,115v2.1h-1v-5.4h1.6c0.3,0,0.7,0,1,0.1c0.2,0.1,0.5,0.2,0.6,0.3c0.2,0.1,0.3,0.3,0.4,0.5   c0.1,0.4,0.1,0.8,0,1.1c-0.1,0.2-0.1,0.3-0.2,0.4c-0.1,0.1-0.2,0.2-0.4,0.3c-0.2,0.1-0.3,0.2-0.5,0.2c0.1,0.1,0.2,0.2,0.3,0.3   l1.3,2H259c-0.1,0-0.2,0-0.2-0.1c-0.1,0-0.1-0.1-0.2-0.1l-1.1-1.7c0-0.1-0.1-0.1-0.1-0.1c-0.1,0-0.1,0-0.2,0L256.6,115L256.6,115z    M256.6,114.3h0.6c0.2,0,0.3,0,0.5-0.1c0.1,0,0.2-0.1,0.3-0.2c0.1-0.1,0.2-0.2,0.2-0.3c0-0.1,0.1-0.3,0.1-0.4   c0-0.2-0.1-0.5-0.3-0.6c-0.2-0.2-0.5-0.2-0.8-0.2h-0.6L256.6,114.3L256.6,114.3z"></path>
	<path class="st13" d="M263.4,117.1h-0.4c-0.1,0-0.1,0-0.2,0c-0.1,0-0.1-0.1-0.1-0.2l-0.1-0.3c-0.1,0.1-0.2,0.2-0.3,0.2   c-0.1,0.1-0.2,0.1-0.3,0.2c-0.1,0-0.2,0.1-0.3,0.1c-0.1,0-0.2,0-0.4,0c-0.2,0-0.3,0-0.5-0.1c-0.1,0-0.3-0.1-0.4-0.2   c-0.1-0.1-0.2-0.2-0.2-0.3c-0.1-0.1-0.1-0.3-0.1-0.4c0-0.1,0-0.3,0.1-0.4c0.1-0.2,0.2-0.3,0.4-0.4c0.2-0.1,0.5-0.2,0.7-0.3   c0.4-0.1,0.7-0.1,1.1-0.1v-0.2c0-0.2,0-0.4-0.2-0.6c-0.1-0.1-0.3-0.2-0.5-0.2c-0.1,0-0.2,0-0.4,0.1c-0.1,0-0.2,0.1-0.2,0.1   l-0.2,0.1c-0.1,0-0.1,0.1-0.2,0.1c-0.1,0-0.1,0-0.2-0.1c-0.1,0-0.1-0.1-0.1-0.1l-0.2-0.3c0.4-0.4,1-0.6,1.6-0.6   c0.2,0,0.4,0,0.6,0.1c0.2,0.1,0.3,0.2,0.5,0.3c0.1,0.1,0.2,0.3,0.3,0.5c0.1,0.2,0.1,0.4,0.1,0.6L263.4,117.1L263.4,117.1z    M261.7,116.5c0.1,0,0.2,0,0.2,0l0.2-0.1c0.1,0,0.1-0.1,0.2-0.1c0.1,0,0.1-0.1,0.2-0.2v-0.6c-0.2,0-0.5,0-0.7,0.1   c-0.2,0-0.3,0.1-0.5,0.1c-0.1,0-0.2,0.1-0.2,0.2c-0.1,0.2-0.1,0.4,0.1,0.6C261.4,116.5,261.5,116.5,261.7,116.5L261.7,116.5z"></path>
	<path class="st13" d="M264.4,117.1v-3.9h0.6c0.1,0,0.2,0.1,0.2,0.2l0.1,0.3l0.2-0.2c0.1-0.1,0.2-0.1,0.3-0.2c0.1,0,0.2-0.1,0.3-0.1   c0.1,0,0.2,0,0.4,0c0.2,0,0.4,0,0.6,0.1c0.2,0.1,0.3,0.2,0.4,0.3c0.1,0.1,0.2,0.3,0.2,0.4c0.1,0.2,0.1,0.4,0.1,0.6v2.5h-1v-2.5   c0-0.2,0-0.4-0.2-0.6c-0.1-0.1-0.3-0.2-0.5-0.2c-0.2,0-0.3,0-0.5,0.1c-0.1,0.1-0.3,0.2-0.4,0.3v2.8L264.4,117.1L264.4,117.1z"></path>
	<path class="st13" d="M269.6,111.5v3.2h0.2c0,0,0.1,0,0.1,0c0,0,0.1-0.1,0.1-0.1l1-1.2c0-0.1,0.1-0.1,0.1-0.1c0.1,0,0.1,0,0.2,0   h0.8l-1.2,1.4c0,0.1-0.1,0.1-0.1,0.1c0,0-0.1,0.1-0.1,0.1c0.1,0,0.1,0.1,0.1,0.1c0,0.1,0.1,0.1,0.1,0.2l1.3,1.9h-0.8   c-0.1,0-0.1,0-0.2,0c-0.1,0-0.1-0.1-0.1-0.1l-1-1.6c0,0-0.1-0.1-0.1-0.1c-0.1,0-0.1,0-0.2,0h-0.2v1.8h-0.9v-5.6L269.6,111.5   L269.6,111.5z"></path>
	<path class="st13" d="M273.9,112.1c0,0.1,0,0.2-0.1,0.2c-0.1,0.1-0.2,0.3-0.3,0.3c-0.1,0-0.1,0.1-0.2,0.1c-0.1,0-0.2,0-0.2-0.1   c-0.1-0.1-0.3-0.2-0.3-0.3c0-0.1-0.1-0.1-0.1-0.2c0-0.1,0-0.2,0.1-0.2c0-0.1,0.1-0.1,0.1-0.2c0.1-0.1,0.1-0.1,0.2-0.1   c0.1,0,0.1-0.1,0.2-0.1c0.1,0,0.2,0,0.2,0.1c0.1,0.1,0.3,0.2,0.3,0.3C273.9,112,273.9,112.1,273.9,112.1z M273.8,113.3v3.9h-0.9   v-3.9H273.8z"></path>
	<path class="st13" d="M274.8,117.1v-3.9h0.6c0.1,0,0.2,0.1,0.2,0.2l0.1,0.3l0.2-0.2c0.1-0.1,0.2-0.1,0.3-0.2c0.1,0,0.2-0.1,0.3-0.1   c0.1,0,0.2-0.1,0.4-0.1c0.2,0,0.4,0,0.6,0.1c0.2,0.1,0.3,0.2,0.4,0.3c0.1,0.1,0.2,0.3,0.2,0.4c0.1,0.2,0.1,0.4,0.1,0.6v2.5h-0.9   v-2.5c0-0.2,0-0.4-0.2-0.6c-0.1-0.1-0.3-0.2-0.5-0.2c-0.2,0-0.3,0-0.5,0.1c-0.1,0.1-0.3,0.2-0.4,0.3v2.8L274.8,117.1L274.8,117.1z"></path>
	<path class="st13" d="M280.4,113.2c0.2,0,0.3,0,0.5,0.1c0.1,0,0.3,0.1,0.4,0.1h1.1v0.4c0,0.1,0,0.1-0.1,0.1c0,0-0.1,0.1-0.2,0.1   l-0.3,0.1c0,0.1,0.1,0.1,0.1,0.2c0,0.1,0,0.1,0,0.2c0,0.3-0.2,0.7-0.4,0.9c-0.1,0.1-0.3,0.2-0.5,0.2c-0.2,0.1-0.4,0.1-0.6,0.1   c-0.1,0-0.3,0-0.4-0.1c-0.1,0-0.2,0.1-0.2,0.2c0,0.1,0,0.2,0.1,0.2l0.3,0.1c0.1,0,0.3,0,0.4,0c0.1,0,0.3,0,0.5,0   c0.2,0,0.3,0,0.5,0.1c0.1,0,0.3,0.1,0.4,0.1c0.1,0.1,0.2,0.2,0.3,0.3c0.1,0.1,0.1,0.3,0.1,0.4c0,0.2-0.1,0.3-0.1,0.5   c-0.1,0.2-0.2,0.3-0.4,0.4c-0.2,0.1-0.4,0.2-0.6,0.3c-0.3,0.1-0.5,0.1-0.8,0.1c-0.3,0-0.5,0-0.8-0.1c-0.2,0-0.4-0.1-0.5-0.2   c-0.1-0.1-0.2-0.2-0.3-0.3c-0.1-0.1-0.1-0.3-0.1-0.4c0-0.2,0.1-0.3,0.2-0.4c0.1-0.1,0.3-0.2,0.5-0.3c-0.1-0.1-0.2-0.1-0.2-0.2   c-0.1-0.1-0.1-0.2-0.1-0.3c0-0.1,0-0.1,0-0.2l0.1-0.2c0-0.1,0.1-0.1,0.2-0.2c0.1-0.1,0.1-0.1,0.2-0.1c-0.2-0.1-0.3-0.2-0.5-0.4   c-0.1-0.2-0.2-0.4-0.2-0.6c0-0.4,0.1-0.7,0.5-0.9c0.1-0.1,0.3-0.2,0.5-0.2C280,113.2,280.2,113.2,280.4,113.2z M281.4,117.3   c0-0.1,0-0.1-0.1-0.2c-0.1-0.1-0.1-0.1-0.2-0.1c-0.1,0-0.2-0.1-0.3-0.1h-0.3h-0.3c-0.1,0-0.2,0-0.4,0c-0.1,0.1-0.2,0.1-0.2,0.2   c-0.1,0.1-0.1,0.2-0.1,0.3c0,0.1,0,0.1,0.1,0.2c0,0.1,0.1,0.1,0.2,0.1c0.1,0,0.2,0.1,0.3,0.1c0.1,0,0.3,0,0.4,0c0.1,0,0.3,0,0.5,0   c0.1,0,0.2-0.1,0.3-0.1c0.1,0,0.1-0.1,0.2-0.2C281.4,117.5,281.4,117.4,281.4,117.3L281.4,117.3z M280.4,115.1c0.1,0,0.2,0,0.3-0.1   c0.1,0,0.2-0.1,0.2-0.1c0.1-0.1,0.1-0.1,0.1-0.2c0-0.1,0.1-0.2,0.1-0.2c0-0.2-0.1-0.3-0.2-0.4c-0.3-0.2-0.7-0.2-1,0   c-0.1,0.1-0.2,0.3-0.2,0.4c0,0.1,0,0.2,0,0.2c0,0.1,0.1,0.1,0.1,0.2c0.1,0.1,0.1,0.1,0.2,0.1C280.2,115.1,280.3,115.1,280.4,115.1z   "></path>
	<path class="st13" d="M285.3,114L285.3,114c-0.1,0.1-0.1,0.1-0.2,0.1c0,0-0.1,0-0.1,0l-0.2-0.1l-0.2-0.1c-0.1,0-0.2,0-0.3,0   c-0.1,0-0.3,0-0.4,0.1c-0.1,0.1-0.2,0.2-0.2,0.3c0,0.1,0,0.1,0.1,0.2c0.1,0.1,0.1,0.1,0.2,0.1c0.1,0.1,0.2,0.1,0.3,0.1l0.3,0.1   c0.1,0,0.2,0.1,0.3,0.1c0.1,0,0.2,0.1,0.3,0.2c0.1,0.1,0.2,0.2,0.2,0.3c0.1,0.1,0.1,0.3,0.1,0.4c0,0.2,0,0.3-0.1,0.5   c-0.1,0.2-0.2,0.3-0.3,0.4c-0.1,0.1-0.3,0.2-0.5,0.3c-0.3,0.1-0.7,0.1-1,0.1c-0.1,0-0.2-0.1-0.4-0.1c-0.1,0-0.2-0.1-0.3-0.1   c-0.1-0.1-0.2-0.1-0.2-0.2l0.2-0.4c0,0,0.1-0.1,0.1-0.1c0,0,0.1,0,0.1,0c0.1,0,0.1,0,0.2,0.1l0.2,0.1l0.2,0.1   c0.1,0,0.2,0.1,0.3,0.1c0.1,0,0.2,0,0.3,0c0.1,0,0.1-0.1,0.2-0.1c0.1,0,0.1-0.1,0.1-0.1c0-0.1,0-0.1,0-0.2c0-0.1,0-0.2-0.1-0.2   c-0.1-0.1-0.1-0.1-0.2-0.1c-0.1,0-0.2-0.1-0.3-0.1l-0.3-0.1c-0.1,0-0.2-0.1-0.3-0.1c-0.1,0-0.2-0.1-0.3-0.2   c-0.1-0.1-0.2-0.2-0.2-0.3c-0.1-0.3-0.1-0.6,0-0.9c0.1-0.1,0.2-0.3,0.3-0.4c0.1-0.1,0.3-0.2,0.5-0.2c0.2-0.1,0.4-0.1,0.6-0.1   c0.3,0,0.5,0,0.7,0.1c0.2,0.1,0.4,0.2,0.5,0.3L285.3,114z"></path>
	<path class="st13" d="M393.3,116.3c0.2,0,0.4,0,0.5-0.1c0.1-0.1,0.3-0.2,0.4-0.3c0.1-0.1,0.2-0.3,0.2-0.4c0.1-0.2,0.1-0.4,0.1-0.6   v-3.2h1v3.2c0,0.3-0.1,0.6-0.2,0.9c-0.1,0.3-0.3,0.5-0.5,0.7c-0.2,0.2-0.4,0.4-0.7,0.5c-0.6,0.2-1.3,0.2-1.9,0   c-0.5-0.2-1-0.6-1.1-1.2c-0.1-0.3-0.2-0.6-0.2-0.9v-3.2h1v3.2c0,0.2,0,0.4,0.1,0.6c0,0.2,0.1,0.3,0.2,0.4c0.1,0.1,0.2,0.2,0.4,0.3   C392.9,116.3,393.1,116.3,393.3,116.3z"></path>
	<path class="st13" d="M396.5,117.1v-3.9h0.6c0.1,0,0.2,0.1,0.2,0.2l0.1,0.3l0.2-0.2c0.1-0.1,0.2-0.1,0.3-0.2c0.1,0,0.2-0.1,0.3-0.1   c0.1,0,0.2,0,0.4,0c0.2,0,0.4,0,0.6,0.1c0.2,0.1,0.3,0.2,0.4,0.3c0.1,0.1,0.2,0.3,0.2,0.4c0.1,0.2,0.1,0.4,0.1,0.6v2.5h-0.9v-2.5   c0-0.2,0-0.4-0.2-0.6c-0.1-0.1-0.3-0.2-0.5-0.2c-0.2,0-0.3,0-0.5,0.1c-0.1,0.1-0.3,0.2-0.4,0.3v2.8L396.5,117.1L396.5,117.1z"></path>
	<path class="st13" d="M401.9,112.1c0,0.1,0,0.2-0.1,0.2c-0.1,0.1-0.2,0.3-0.3,0.3c-0.1,0-0.1,0.1-0.2,0.1c-0.1,0-0.2,0-0.2-0.1   c-0.1-0.1-0.3-0.2-0.3-0.3c0-0.1-0.1-0.1-0.1-0.2c0-0.1,0-0.2,0.1-0.2c0-0.1,0.1-0.1,0.1-0.2c0.1-0.1,0.1-0.1,0.2-0.1   c0.1,0,0.1-0.1,0.2-0.1c0.1,0,0.2,0,0.2,0.1c0.1,0.1,0.3,0.2,0.3,0.3C401.9,112,401.9,112.1,401.9,112.1z M401.8,113.3v3.9h-0.9   v-3.9H401.8z"></path>
	<path class="st13" d="M404.7,117.1h-0.8l-1.5-3.9h0.8c0.1,0,0.1,0,0.2,0.1c0,0,0.1,0.1,0.1,0.1l0.8,2.1c0.1,0.1,0.1,0.2,0.1,0.4   l0.1,0.3l0.1-0.3c0-0.1,0.1-0.2,0.1-0.4l0.8-2.1c0,0,0-0.1,0.1-0.1c0.1,0,0.1-0.1,0.2-0.1h0.7L404.7,117.1z"></path>
	<path class="st13" d="M408.3,113.2c0.2,0,0.5,0,0.7,0.1c0.2,0.1,0.4,0.2,0.5,0.3c0.1,0.2,0.3,0.4,0.3,0.6c0.1,0.2,0.1,0.5,0.1,0.7   v0.2c0,0,0,0.1,0,0.1s0,0.1-0.1,0.1s-0.1,0-0.1,0h-2.4c0,0.3,0.1,0.6,0.3,0.9c0.2,0.2,0.5,0.3,0.7,0.3c0.1,0,0.3,0,0.4-0.1l0.3-0.1   l0.2-0.1c0.1,0,0.1-0.1,0.2-0.1c0,0,0.1,0,0.1,0c0,0,0.1,0,0.1,0.1l0.3,0.3c-0.1,0.1-0.2,0.2-0.3,0.3c-0.1,0.1-0.3,0.2-0.4,0.2   c-0.1,0-0.3,0.1-0.4,0.1c-0.1,0-0.3,0-0.4,0c-0.3,0-0.5-0.1-0.8-0.1c-0.2-0.1-0.4-0.2-0.6-0.4c-0.2-0.2-0.3-0.4-0.4-0.6   c-0.1-0.3-0.2-0.6-0.1-0.9c0-0.2,0.1-0.5,0.1-0.7c0.1-0.2,0.2-0.4,0.4-0.6c0.2-0.2,0.4-0.3,0.6-0.4   C407.8,113.2,408,113.2,408.3,113.2z M408.3,113.8c-0.2,0-0.5,0.1-0.6,0.2c-0.2,0.2-0.3,0.4-0.3,0.6h1.7c0-0.1,0-0.2-0.1-0.3   c0-0.2-0.2-0.4-0.4-0.5C408.5,113.8,408.4,113.8,408.3,113.8L408.3,113.8z"></path>
	<path class="st13" d="M410.7,117.1v-3.9h0.5c0.1,0,0.1,0,0.2,0.1c0,0,0.1,0.1,0.1,0.2l0.1,0.5c0.1-0.2,0.3-0.4,0.5-0.6   c0.2-0.2,0.4-0.2,0.6-0.2c0.2,0,0.3,0,0.5,0.1l-0.1,0.7c0,0,0,0.1-0.1,0.1s-0.1,0-0.1,0c-0.1,0-0.1,0-0.2,0c-0.1,0-0.2,0-0.2,0   c-0.2,0-0.4,0.1-0.5,0.2c-0.2,0.1-0.3,0.3-0.3,0.5v2.4L410.7,117.1L410.7,117.1z"></path>
	<path class="st13" d="M416.1,114L416.1,114c-0.1,0.1-0.1,0.1-0.2,0.1c0,0-0.1,0-0.1,0l-0.2-0.1l-0.2-0.1c-0.1,0-0.2,0-0.3,0   c-0.1,0-0.3,0-0.4,0.1c-0.1,0.1-0.2,0.2-0.2,0.3c0,0.1,0,0.1,0.1,0.2c0.1,0.1,0.1,0.1,0.2,0.1c0.1,0.1,0.2,0.1,0.3,0.1l0.3,0.1   c0.1,0,0.2,0.1,0.3,0.1c0.1,0,0.2,0.1,0.3,0.2c0.1,0.1,0.2,0.2,0.2,0.3c0.1,0.1,0.1,0.3,0.1,0.4c0,0.2,0,0.3-0.1,0.5   c-0.1,0.2-0.2,0.3-0.3,0.4c-0.1,0.1-0.3,0.2-0.5,0.3c-0.3,0.1-0.7,0.1-1,0.1c-0.1,0-0.2-0.1-0.4-0.1c-0.1,0-0.2-0.1-0.3-0.1   c-0.1-0.1-0.2-0.1-0.2-0.2l0.2-0.4c0,0,0.1-0.1,0.1-0.1c0,0,0.1,0,0.1,0c0.1,0,0.1,0,0.2,0.1l0.2,0.1c0.1,0,0.1,0.1,0.2,0.1   c0.1,0,0.2,0.1,0.3,0.1c0.1,0,0.2,0,0.3,0c0.1,0,0.1-0.1,0.2-0.1c0.1,0,0.1-0.1,0.1-0.1c0-0.1,0-0.1,0-0.2c0-0.1,0-0.2-0.1-0.2   c-0.1-0.1-0.1-0.1-0.2-0.1c-0.1,0-0.2-0.1-0.3-0.1l-0.3-0.1c-0.1,0-0.2-0.1-0.3-0.1c-0.1,0-0.2-0.1-0.3-0.2   c-0.1-0.1-0.2-0.2-0.2-0.3c-0.1-0.3-0.1-0.6,0-0.9c0.1-0.1,0.2-0.3,0.3-0.4c0.1-0.1,0.3-0.2,0.5-0.2c0.2-0.1,0.4-0.1,0.6-0.1   c0.3,0,0.5,0,0.7,0.1c0.2,0.1,0.4,0.2,0.5,0.3L416.1,114z"></path>
	<path class="st13" d="M420.1,117.1h-0.4c-0.1,0-0.1,0-0.2,0c-0.1,0-0.1-0.1-0.1-0.2l-0.1-0.3c-0.1,0.1-0.2,0.2-0.3,0.2   c-0.1,0.1-0.2,0.1-0.3,0.2c-0.1,0-0.2,0.1-0.3,0.1c-0.1,0-0.2,0-0.4,0c-0.2,0-0.3,0-0.5-0.1c-0.1,0-0.3-0.1-0.4-0.2   c-0.1-0.1-0.2-0.2-0.2-0.3c-0.1-0.1-0.1-0.3-0.1-0.4c0-0.1,0-0.3,0.1-0.4c0.1-0.2,0.2-0.3,0.4-0.4c0.2-0.1,0.5-0.2,0.7-0.3   c0.4-0.1,0.7-0.1,1.1-0.1v-0.2c0-0.2,0-0.4-0.2-0.6c-0.1-0.1-0.3-0.2-0.5-0.2c-0.1,0-0.2,0-0.4,0.1c-0.1,0-0.2,0.1-0.2,0.1   l-0.2,0.1c-0.1,0-0.1,0.1-0.2,0.1c-0.1,0-0.1,0-0.2-0.1c-0.1,0-0.1-0.1-0.1-0.1l-0.2-0.3c0.4-0.4,1-0.6,1.6-0.6   c0.2,0,0.4,0,0.6,0.1c0.2,0.1,0.3,0.2,0.5,0.3c0.1,0.1,0.2,0.3,0.3,0.5c0.1,0.2,0.1,0.4,0.1,0.6L420.1,117.1L420.1,117.1z    M418.3,116.5c0.1,0,0.2,0,0.2,0l0.2-0.1c0.1,0,0.1-0.1,0.2-0.1c0.1,0,0.1-0.1,0.2-0.2v-0.6c-0.2,0-0.5,0-0.7,0.1   c-0.2,0-0.3,0.1-0.5,0.1c-0.1,0-0.2,0.1-0.2,0.2c-0.1,0.2-0.1,0.4,0.1,0.6C418,116.5,418.1,116.6,418.3,116.5L418.3,116.5z"></path>
	<path class="st13" d="M422,111.5v5.6h-0.9v-5.6H422z"></path>
	<path class="st13" d="M425.6,115v2.1h-1v-5.4h1.6c0.3,0,0.7,0,1,0.1c0.2,0.1,0.5,0.2,0.6,0.3c0.2,0.1,0.3,0.3,0.4,0.5   c0.1,0.4,0.1,0.8,0,1.1c-0.1,0.2-0.1,0.3-0.2,0.4c-0.1,0.1-0.2,0.2-0.4,0.3c-0.2,0.1-0.3,0.2-0.5,0.2c0.1,0.1,0.2,0.2,0.3,0.3   l1.3,2h-0.9c-0.1,0-0.2,0-0.2-0.1c-0.1,0-0.1-0.1-0.2-0.1l-1.1-1.7c0-0.1-0.1-0.1-0.1-0.1c-0.1,0-0.1,0-0.2,0L425.6,115L425.6,115z    M425.6,114.3h0.6c0.2,0,0.3,0,0.5-0.1c0.1,0,0.2-0.1,0.3-0.2c0.1-0.1,0.2-0.2,0.2-0.3c0-0.1,0.1-0.3,0.1-0.4   c0-0.2-0.1-0.5-0.3-0.6c-0.2-0.2-0.5-0.2-0.8-0.2h-0.6L425.6,114.3L425.6,114.3z"></path>
	<path class="st13" d="M431,113.2c0.2,0,0.5,0,0.7,0.1c0.2,0.1,0.4,0.2,0.5,0.3c0.1,0.2,0.3,0.4,0.3,0.6c0.1,0.2,0.1,0.5,0.1,0.7   v0.2c0,0,0,0.1,0,0.1s0,0.1-0.1,0.1s-0.1,0-0.1,0h-2.4c0,0.3,0.1,0.6,0.3,0.9c0.2,0.2,0.5,0.3,0.7,0.3c0.1,0,0.3,0,0.4-0.1l0.3-0.1   l0.2-0.1c0.1,0,0.1-0.1,0.2-0.1c0,0,0.1,0,0.1,0c0,0,0.1,0,0.1,0.1l0.3,0.3c-0.1,0.1-0.2,0.2-0.3,0.3c-0.1,0.1-0.3,0.2-0.4,0.2   c-0.1,0-0.3,0.1-0.4,0.1c-0.1,0-0.3,0-0.4,0c-0.3,0-0.5-0.1-0.8-0.1c-0.2-0.1-0.4-0.2-0.6-0.4c-0.2-0.2-0.3-0.4-0.4-0.6   c-0.1-0.3-0.2-0.6-0.1-0.9c0-0.2,0.1-0.5,0.1-0.7c0.1-0.2,0.2-0.4,0.4-0.6c0.2-0.2,0.4-0.3,0.6-0.4   C430.5,113.2,430.7,113.2,431,113.2z M431,113.8c-0.2,0-0.5,0.1-0.6,0.2c-0.2,0.2-0.3,0.4-0.3,0.6h1.7c0-0.1,0-0.2-0.1-0.3   c0-0.2-0.2-0.4-0.4-0.5C431.2,113.8,431.1,113.8,431,113.8L431,113.8z"></path>
	<path class="st13" d="M435.7,114L435.7,114c-0.1,0.1-0.1,0.1-0.2,0.1c0,0-0.1,0-0.1,0l-0.2-0.1l-0.2-0.1c-0.1,0-0.2,0-0.3,0   c-0.1,0-0.3,0-0.4,0.1c-0.1,0.1-0.2,0.2-0.2,0.3c0,0.1,0,0.1,0.1,0.2c0.1,0.1,0.1,0.1,0.2,0.1c0.1,0.1,0.2,0.1,0.3,0.1l0.3,0.1   c0.1,0,0.2,0.1,0.3,0.1c0.1,0,0.2,0.1,0.3,0.2c0.1,0.1,0.2,0.2,0.2,0.3c0.1,0.1,0.1,0.3,0.1,0.4c0,0.2,0,0.3-0.1,0.5   c-0.1,0.2-0.2,0.3-0.3,0.4c-0.1,0.1-0.3,0.2-0.5,0.3c-0.3,0.1-0.7,0.1-1,0.1c-0.1,0-0.2-0.1-0.4-0.1c-0.1,0-0.2-0.1-0.3-0.1   c-0.1-0.1-0.2-0.1-0.2-0.2l0.2-0.4c0,0,0.1-0.1,0.1-0.1c0,0,0.1,0,0.1,0c0.1,0,0.1,0,0.2,0.1l0.2,0.1c0.1,0,0.1,0.1,0.2,0.1   c0.1,0,0.2,0.1,0.3,0.1c0.1,0,0.2,0,0.3,0c0.1,0,0.1-0.1,0.2-0.1c0.1,0,0.1-0.1,0.1-0.1c0-0.1,0-0.1,0-0.2c0-0.1,0-0.2-0.1-0.2   c-0.1-0.1-0.1-0.1-0.2-0.1c-0.1,0-0.2-0.1-0.3-0.1l-0.4-0.2c-0.1,0-0.2-0.1-0.3-0.1c-0.1,0-0.2-0.1-0.3-0.2   c-0.1-0.1-0.2-0.2-0.2-0.3c-0.1-0.3-0.1-0.6,0-0.9c0.1-0.1,0.2-0.3,0.3-0.4c0.1-0.1,0.3-0.2,0.5-0.2c0.2-0.1,0.4-0.1,0.6-0.1   c0.3,0,0.5,0,0.7,0.1c0.2,0.1,0.4,0.2,0.5,0.3L435.7,114z"></path>
	<path class="st13" d="M437.5,113.3v2.5c0,0.2,0,0.4,0.2,0.6c0.1,0.1,0.3,0.2,0.5,0.2c0.2,0,0.3,0,0.5-0.1c0.1-0.1,0.3-0.2,0.4-0.3   v-2.8h0.9v3.8h-0.6c-0.1,0-0.2-0.1-0.2-0.2l-0.1-0.3l-0.2,0.2c-0.1,0.1-0.2,0.1-0.3,0.2c-0.1,0-0.2,0.1-0.3,0.1c-0.1,0-0.2,0-0.4,0   c-0.2,0-0.4,0-0.6-0.1c-0.2-0.1-0.3-0.2-0.4-0.3c-0.1-0.1-0.2-0.3-0.2-0.5c-0.1-0.2-0.1-0.4-0.1-0.6v-2.4L437.5,113.3z"></path>
	<path class="st13" d="M441.9,111.5v5.6H441v-5.6H441.9z"></path>
	<path class="st13" d="M444.3,117.2c-0.3,0-0.6-0.1-0.8-0.3c-0.2-0.2-0.3-0.5-0.3-0.8V114h-0.4c-0.1,0-0.2-0.1-0.2-0.2v-0.4l0.6-0.1   l0.2-1.1c0,0,0-0.1,0.1-0.1c0,0,0.1-0.1,0.1-0.1h0.5v1.2h1v0.7h-1v2.1c0,0.1,0,0.2,0.1,0.3c0.1,0.1,0.2,0.1,0.2,0.1   c0,0,0.1,0,0.1,0c0,0,0.1,0,0.1,0l0.1-0.1c0,0,0,0,0.1,0h0.1l0.1,0.1l0.3,0.4c-0.1,0.1-0.3,0.2-0.5,0.2   C444.6,117.2,444.4,117.2,444.3,117.2z"></path>
	<path class="st13" d="M448.2,114L448.2,114c-0.1,0.1-0.1,0.1-0.2,0.1c0,0-0.1,0-0.1,0l-0.2-0.1l-0.2-0.1c-0.1,0-0.2,0-0.3,0   c-0.1,0-0.3,0-0.4,0.1c-0.1,0.1-0.2,0.2-0.2,0.3c0,0.1,0,0.1,0.1,0.2c0.1,0.1,0.1,0.1,0.2,0.1c0.1,0.1,0.2,0.1,0.3,0.1l0.3,0.1   c0.1,0,0.2,0.1,0.3,0.1c0.1,0,0.2,0.1,0.3,0.2c0.1,0.1,0.2,0.2,0.2,0.3c0.1,0.1,0.1,0.3,0.1,0.4c0,0.2,0,0.3-0.1,0.5   c-0.1,0.2-0.2,0.3-0.3,0.4c-0.1,0.1-0.3,0.2-0.5,0.3c-0.3,0.1-0.7,0.1-1,0.1c-0.1,0-0.2-0.1-0.4-0.1c-0.1,0-0.2-0.1-0.3-0.1   c-0.1-0.1-0.2-0.1-0.2-0.2l0.2-0.4c0,0,0.1-0.1,0.1-0.1c0,0,0.1,0,0.1,0c0.1,0,0.1,0,0.2,0.1l0.2,0.1l0.2,0.1   c0.1,0,0.2,0.1,0.3,0.1c0.1,0,0.2,0,0.3,0c0.1,0,0.1-0.1,0.2-0.1c0.1,0,0.1-0.1,0.1-0.1c0-0.1,0-0.1,0-0.2c0-0.1,0-0.2-0.1-0.2   c-0.1-0.1-0.1-0.1-0.2-0.1c-0.1,0-0.2-0.1-0.3-0.1l-0.3-0.1c-0.1,0-0.2-0.1-0.3-0.1c-0.1,0-0.2-0.1-0.3-0.2   c-0.1-0.1-0.2-0.2-0.2-0.3c-0.1-0.3-0.1-0.6,0-0.9c0.1-0.1,0.2-0.3,0.3-0.4c0.1-0.1,0.3-0.2,0.5-0.2c0.2-0.1,0.4-0.1,0.6-0.1   c0.3,0,0.5,0,0.7,0.1c0.2,0.1,0.4,0.2,0.5,0.3L448.2,114z"></path>
	<path class="st16" d="M49.6,115c0.5,0,0.9,0.1,1.3,0.2c0.4,0.1,0.7,0.3,1,0.6c0.3,0.3,0.5,0.6,0.7,1c0.2,0.4,0.3,0.8,0.2,1.2   c0,0.4-0.1,0.7-0.2,1.1c-0.1,0.4-0.3,0.7-0.5,1c-0.2,0.3-0.4,0.6-0.7,0.9c-0.2,0.3-0.5,0.6-0.8,0.9l-2.4,2.4l0.7-0.2   c0.2,0,0.4-0.1,0.6-0.1h2.7c0.2,0,0.3,0.1,0.5,0.2c0.1,0.1,0.2,0.3,0.2,0.4v1.1h-7.2v-0.6c0-0.1,0-0.3,0.1-0.4   c0.1-0.1,0.1-0.3,0.2-0.4l3.2-3.2c0.3-0.3,0.5-0.5,0.7-0.8c0.2-0.2,0.4-0.5,0.5-0.7c0.1-0.2,0.3-0.5,0.3-0.7   c0.1-0.3,0.1-0.5,0.1-0.8c0-0.2,0-0.5-0.1-0.7c-0.1-0.4-0.4-0.7-0.8-0.8c-0.2-0.1-0.4-0.1-0.6-0.1c-0.4,0-0.8,0.1-1.1,0.3   c-0.3,0.2-0.5,0.5-0.6,0.9c0,0.2-0.1,0.3-0.2,0.4c-0.1,0.1-0.3,0.1-0.4,0.1c-0.1,0-0.2,0-0.2,0l-1-0.2c0.1-0.5,0.2-0.9,0.4-1.3   c0.2-0.4,0.5-0.7,0.8-1c0.3-0.3,0.7-0.5,1.1-0.6C48.7,115.2,49.1,115.1,49.6,115z"></path>
	<path class="st16" d="M61.7,115.2v0.8c0,0.2,0,0.4-0.1,0.6c-0.1,0.1-0.1,0.2-0.1,0.4l-4,8.2c-0.1,0.2-0.2,0.3-0.3,0.4   c-0.2,0.1-0.4,0.2-0.6,0.2h-1.3l4.1-8.1c0.1-0.3,0.3-0.6,0.6-0.9h-5c-0.2,0-0.4-0.2-0.4-0.4v-1.2L61.7,115.2L61.7,115.2z"></path>
	<path class="st16" d="M69.4,115.9c0,0.2-0.1,0.5-0.2,0.6c-0.2,0.2-0.5,0.3-0.8,0.2h-2.9L65,119c0.4-0.1,0.9-0.1,1.3-0.1   c0.5,0,1,0.1,1.5,0.2c0.4,0.2,0.8,0.4,1.1,0.7c0.3,0.3,0.5,0.6,0.6,1c0.1,0.4,0.2,0.8,0.2,1.3c0,0.5-0.1,1.1-0.3,1.5   c-0.2,0.4-0.5,0.8-0.8,1.2c-0.4,0.3-0.8,0.6-1.3,0.8c-0.5,0.2-1,0.3-1.6,0.3c-0.3,0-0.7,0-1-0.1c-0.6-0.1-1.1-0.4-1.6-0.7   c-0.2-0.1-0.4-0.3-0.6-0.5l0.6-0.8c0.1-0.2,0.3-0.3,0.5-0.2c0.1,0,0.3,0,0.4,0.1c0.1,0.1,0.3,0.2,0.4,0.2c0.2,0.1,0.4,0.2,0.6,0.2   c0.3,0.1,0.5,0.1,0.8,0.1c0.3,0,0.6-0.1,0.9-0.2c0.2-0.1,0.5-0.3,0.6-0.4c0.2-0.2,0.3-0.4,0.4-0.7c0.1-0.3,0.1-0.6,0.1-0.9   c0-0.5-0.1-1-0.5-1.3c-0.4-0.4-0.9-0.5-1.5-0.5c-0.5,0-1,0.1-1.5,0.3l-1.1-0.3l0.9-5.1h5.2L69.4,115.9L69.4,115.9z"></path>
	<path class="st17" d="M124,114.7c0.5,0,0.9,0.1,1.3,0.2c0.4,0.1,0.7,0.3,1,0.6c0.3,0.3,0.5,0.6,0.7,1c0.2,0.4,0.3,0.8,0.2,1.2   c0,0.4-0.1,0.7-0.2,1.1c-0.1,0.3-0.3,0.7-0.4,1c-0.2,0.3-0.4,0.6-0.7,0.9c-0.2,0.3-0.5,0.6-0.8,0.9l-2.4,2.4l0.7-0.2   c0.2,0,0.4-0.1,0.6-0.1h2.7c0.2,0,0.3,0.1,0.5,0.2c0.1,0.1,0.2,0.3,0.2,0.4v1.1h-7.2v-0.6c0-0.1,0-0.3,0.1-0.4   c0.1-0.1,0.1-0.3,0.2-0.4l3.2-3.2c0.3-0.3,0.5-0.5,0.7-0.8c0.2-0.2,0.4-0.5,0.5-0.7c0.1-0.2,0.3-0.5,0.3-0.7   c0.1-0.3,0.1-0.5,0.1-0.8c0-0.2,0-0.5-0.1-0.7c-0.1-0.4-0.4-0.7-0.8-0.8c-0.2-0.1-0.4-0.1-0.6-0.1c-0.4,0-0.8,0.1-1.1,0.3   c-0.3,0.2-0.5,0.5-0.6,0.9c0,0.2-0.1,0.3-0.2,0.4c-0.1,0.1-0.3,0.1-0.4,0.1c-0.1,0-0.2,0-0.2,0l-1-0.2c0.1-0.5,0.2-0.9,0.4-1.3   c0.2-0.4,0.5-0.7,0.8-1c0.3-0.3,0.7-0.5,1.1-0.6C123.1,114.8,123.5,114.7,124,114.7z"></path>
	<path class="st17" d="M132,121.2c-0.4,0-0.7-0.1-1.1-0.2c-0.3-0.1-0.7-0.3-0.9-0.6c-0.3-0.3-0.5-0.6-0.7-1   c-0.2-0.4-0.3-0.9-0.2-1.3c0-0.9,0.4-1.8,1-2.4c0.7-0.6,1.6-1,2.6-1c0.5,0,1,0.1,1.5,0.2c0.4,0.2,0.8,0.4,1.1,0.7   c0.3,0.3,0.5,0.7,0.7,1.1c0.2,0.4,0.3,0.9,0.2,1.4c0,0.3,0,0.6-0.1,0.9c-0.1,0.3-0.1,0.6-0.2,0.8c-0.1,0.3-0.2,0.5-0.4,0.8   c-0.2,0.3-0.3,0.5-0.5,0.8l-2.4,3.4c-0.1,0.1-0.2,0.2-0.4,0.3c-0.2,0.1-0.4,0.1-0.6,0.1H130l3.3-4.1c0.1-0.1,0.2-0.2,0.2-0.3   c0.1-0.1,0.1-0.2,0.2-0.3c-0.3,0.2-0.5,0.3-0.8,0.4C132.6,121.1,132.3,121.2,132,121.2z M134.4,118c0-0.3,0-0.5-0.1-0.8   c-0.1-0.2-0.2-0.4-0.4-0.6c-0.2-0.2-0.4-0.3-0.6-0.4c-0.2-0.1-0.5-0.1-0.7-0.1c-0.3,0-0.5,0-0.7,0.1c-0.2,0.1-0.4,0.2-0.6,0.4   c-0.2,0.2-0.3,0.4-0.4,0.6c-0.1,0.2-0.1,0.5-0.1,0.7c0,0.5,0.1,1,0.4,1.3c0.3,0.3,0.8,0.5,1.3,0.5c0.3,0,0.5-0.1,0.8-0.1   c0.2-0.1,0.4-0.2,0.6-0.4c0.2-0.2,0.3-0.4,0.4-0.6C134.4,118.5,134.4,118.3,134.4,118L134.4,118z"></path>
	<path class="st18" d="M170.4,114.7c0.5,0,0.9,0.1,1.3,0.2c0.4,0.1,0.7,0.3,1,0.6c0.3,0.3,0.5,0.6,0.7,1c0.2,0.4,0.3,0.8,0.2,1.2   c0,0.4-0.1,0.7-0.2,1.1c-0.1,0.3-0.3,0.7-0.5,1c-0.2,0.3-0.4,0.6-0.7,0.9c-0.2,0.3-0.5,0.6-0.8,0.9l-2.4,2.4l0.7-0.2   c0.2,0,0.4-0.1,0.6-0.1h2.7c0.2,0,0.3,0.1,0.5,0.2c0.1,0.1,0.2,0.3,0.2,0.4v1.1h-7.2v-0.6c0-0.1,0-0.3,0.1-0.4   c0.1-0.1,0.1-0.3,0.2-0.4l3.2-3.2c0.3-0.3,0.5-0.5,0.7-0.8c0.2-0.2,0.4-0.5,0.5-0.7c0.1-0.2,0.3-0.5,0.3-0.7   c0.1-0.3,0.1-0.5,0.1-0.8c0-0.2,0-0.5-0.1-0.7c-0.1-0.4-0.4-0.7-0.8-0.8c-0.2-0.1-0.4-0.1-0.6-0.1c-0.4,0-0.8,0.1-1.1,0.3   c-0.3,0.2-0.5,0.5-0.6,0.9c0,0.2-0.1,0.3-0.2,0.4c-0.1,0.1-0.3,0.1-0.4,0.1c-0.1,0-0.2,0-0.2,0l-1-0.2c0.1-0.5,0.2-0.9,0.4-1.3   c0.2-0.4,0.5-0.7,0.8-1c0.3-0.3,0.7-0.5,1.1-0.6C169.5,114.8,170,114.7,170.4,114.7z"></path>
	<path class="st18" d="M182.6,120.1c0,0.8-0.1,1.6-0.3,2.4c-0.2,0.6-0.4,1.2-0.8,1.7c-0.3,0.4-0.7,0.8-1.2,1c-1,0.4-2.1,0.4-3.1,0   c-0.5-0.2-0.9-0.6-1.2-1c-0.4-0.5-0.6-1.1-0.8-1.7c-0.4-1.6-0.4-3.2,0-4.8c0.2-0.6,0.4-1.2,0.8-1.7c0.3-0.4,0.7-0.8,1.2-1   c1-0.4,2.1-0.4,3.1,0c0.5,0.2,0.9,0.6,1.2,1c0.4,0.5,0.6,1.1,0.8,1.7C182.5,118.5,182.7,119.3,182.6,120.1z M180.8,120.1   c0-0.6-0.1-1.3-0.2-1.9c-0.1-0.4-0.2-0.8-0.4-1.2c-0.1-0.3-0.4-0.5-0.6-0.6c-0.2-0.1-0.5-0.2-0.8-0.2c-0.3,0-0.5,0.1-0.8,0.2   c-0.3,0.1-0.5,0.4-0.6,0.6c-0.2,0.4-0.4,0.8-0.5,1.2c-0.2,1.3-0.2,2.5,0,3.8c0.1,0.4,0.2,0.8,0.5,1.2c0.1,0.3,0.4,0.5,0.6,0.6   c0.2,0.1,0.5,0.2,0.8,0.2c0.3,0,0.5-0.1,0.8-0.2c0.3-0.1,0.5-0.4,0.6-0.6c0.2-0.4,0.4-0.8,0.4-1.2   C180.7,121.4,180.8,120.8,180.8,120.1z"></path>
	<rect x="39.3" y="107.5" class="st19" width="428.5" height="44.7"></rect>
	<line class="st19" x1="363.7" y1="107.5" x2="363.7" y2="152.2"></line>
	<line class="st19" x1="211.2" y1="107.5" x2="211.2" y2="152.2"></line>
	<line class="st19" x1="114.2" y1="107.5" x2="114.2" y2="152.2"></line>
	<polyline class="st20" points="332.8,135.5 329.2,139.1 325.6,135.5  "></polyline>
	<polyline class="st20" points="332.8,125.8 329.2,129.4 325.6,125.8  "></polyline>
	<polyline class="st21" points="277.9,129.4 281.4,125.8 285,129.4  "></polyline>
	<polyline class="st21" points="277.9,139.1 281.4,135.5 285,139.1  "></polyline>
	<line class="st11" x1="328.4" y1="146.7" x2="223.7" y2="146.7"></line>
	<line class="st11" x1="146.9" y1="139.4" x2="122" y2="139.4"></line>
	<line class="st11" x1="138.4" y1="142.8" x2="122" y2="142.8"></line>
	<line class="st11" x1="240.1" y1="127.6" x2="223.7" y2="127.6"></line>
	<line class="st11" x1="240.1" y1="137.3" x2="223.7" y2="137.3"></line>
	<line class="st11" x1="264" y1="127.6" x2="271.2" y2="127.6"></line>
	<line class="st11" x1="264" y1="137.3" x2="271.2" y2="137.3"></line>
	<line class="st22" x1="74.1" y1="144.7" x2="46.1" y2="144.7"></line>
	<path class="st23" d="M419.7,125l-2.2-0.7l-0.7,0.1c-0.3-0.1-0.5-0.2-0.8-0.1c-0.6,0-1.2,0.2-1.6,0.7l-2-0.6   c-0.2-0.1-0.4-0.1-0.6,0.1c-0.2,0.1-0.3,0.3-0.3,0.5v6.5c0,0.4,0.3,0.7,0.6,0.8l2.2,0.7l2.9-0.8l2.1,0.6c0.2,0.1,0.4,0.1,0.6-0.1   c0.2-0.1,0.3-0.3,0.3-0.5v-6.5C420.2,125.5,420,125.2,419.7,125z M415.9,125.2c0.8,0,1.4,0.6,1.4,1.4c-0.2,1-0.7,2-1.4,2.7   c-0.8-0.7-1.3-1.7-1.4-2.7C414.5,125.8,415.1,125.2,415.9,125.2z M412.3,131.7v-6.4l1.6,0.5c-0.1,0.3-0.2,0.6-0.2,0.9   c0,0.5,0.1,0.9,0.3,1.4v4.3l-1.7-0.5C412.3,131.8,412.3,131.7,412.3,131.7z M414.5,132.4L414.5,132.4v-3.7c0.4,0.5,0.7,1,1.1,1.5   l0.3,0.3l0.3-0.3c0.5-0.4,0.8-1,1.1-1.5v3L414.5,132.4z M419.5,132.3l-1.8-0.5V128c0.2-0.4,0.3-0.9,0.3-1.4c0-0.5-0.2-1-0.5-1.4   l1.9,0.6c0.1,0,0.1,0.1,0.1,0.1L419.5,132.3L419.5,132.3z"></path>
	<path class="st23" d="M415.9,127.4c0.4,0,0.8-0.3,0.8-0.8c0-0.4-0.3-0.8-0.8-0.8c-0.4,0-0.8,0.3-0.8,0.8   C415.2,127,415.5,127.4,415.9,127.4C415.9,127.4,415.9,127.4,415.9,127.4z M415.9,126.3c0.2,0,0.3,0.2,0.3,0.3s-0.2,0.3-0.3,0.3   c-0.2,0-0.3-0.2-0.3-0.3l0,0l0,0C415.6,126.4,415.7,126.3,415.9,126.3C415.9,126.3,415.9,126.3,415.9,126.3L415.9,126.3z"></path>
	<line class="st11" x1="412.3" y1="137.6" x2="419.4" y2="137.6"></line>
	<rect x="433.8" y="131.3" class="st23" width="4.4" height="0.3"></rect>
	<rect x="438.8" y="131.3" class="st23" width="1.1" height="0.3"></rect>
	<path class="st23" d="M440.4,124.4h-7.2c-0.4,0-0.8,0.3-0.8,0.7c0,0,0,0,0,0v7.2c0,0.4,0.3,0.8,0.7,0.8c0,0,0,0,0,0h7.2   c0.4,0,0.8-0.3,0.8-0.7c0,0,0,0,0,0v-7.2C441.2,124.8,440.9,124.4,440.4,124.4C440.5,124.4,440.5,124.4,440.4,124.4z M440.4,132.4   h-7.2v-1.8h7.2V132.4z M435.2,130.3l0.8-1.4l0.7,1.4l1.4-3.3l1.4,3.3L435.2,130.3L435.2,130.3z M440.4,130.3h-0.7l-1.7-4.3   l-1.4,3.4L436,128l-1.1,2.2h-1.6v-5h7.2L440.4,130.3L440.4,130.3z"></path>
	<path class="st23" d="M434.8,127.7c-0.5,0-0.9-0.4-0.9-0.9c0-0.5,0.4-0.9,0.9-0.9c0.5,0,0.9,0.4,0.9,0.9v0   C435.8,127.3,435.4,127.7,434.8,127.7C434.9,127.7,434.9,127.7,434.8,127.7z M434.8,126.3c-0.3,0-0.6,0.3-0.6,0.6s0.3,0.6,0.6,0.6   c0.3,0,0.6-0.3,0.6-0.6l0,0C435.4,126.5,435.2,126.3,434.8,126.3z"></path>
	<line class="st11" x1="433.2" y1="137.6" x2="440.4" y2="137.6"></line>
	<rect x="391.8" y="131.3" class="st23" width="4.4" height="0.3"></rect>
	<rect x="396.9" y="131.3" class="st23" width="1.1" height="0.3"></rect>
	<path class="st23" d="M393.8,126.3v2.8l2.3-1.4L393.8,126.3z M394.2,127l1.3,0.8l-1.3,0.8V127L394.2,127z"></path>
	<path class="st23" d="M398.5,124.4h-7.2c-0.4,0-0.8,0.3-0.8,0.7c0,0,0,0,0,0v7.2c0,0.4,0.3,0.8,0.7,0.8c0,0,0,0,0,0h7.2   c0.4,0,0.8-0.3,0.8-0.7c0,0,0,0,0,0v-7.2C399.3,124.8,398.9,124.5,398.5,124.4z M398.5,125.2v5h-7.2v-5H398.5z M391.3,132.4v-1.8   h7.2v1.8H391.3z"></path>
	<line class="st11" x1="391.3" y1="137.6" x2="398.5" y2="137.6"></line>
	<line class="st11" x1="312.7" y1="127.6" x2="319.8" y2="127.6"></line>
	<line class="st11" x1="312.7" y1="137.3" x2="319.8" y2="137.3"></line>
	<rect x="39.3" y="162.4" class="st19" width="215.2" height="18.4"></rect>
	<line class="st19" x1="144.6" y1="162.4" x2="144.6" y2="180.9"></line>
	<line class="st19" x1="195.3" y1="162.4" x2="195.3" y2="180.9"></line>
	<path class="st24" d="M43.3,194.6h-0.6l-0.1-0.6c-0.1-0.1-0.2-0.1-0.3-0.1c-0.2,0-0.3-0.1-0.5-0.1c-0.2,0-0.4,0-0.6,0.1   c-0.1,0.1-0.2,0.2-0.2,0.4c0,0.1,0.1,0.3,0.2,0.4c0.2,0.1,0.5,0.2,0.7,0.3c0.4,0.1,0.8,0.3,1.1,0.5c0.3,0.2,0.4,0.5,0.4,0.9   c0,0.4-0.2,0.7-0.4,0.9c-0.4,0.2-0.8,0.3-1.2,0.3c-0.3,0-0.6-0.1-0.9-0.2c-0.3-0.1-0.5-0.3-0.7-0.5v-0.9h0.7l0.1,0.6   c0.1,0.1,0.2,0.1,0.4,0.2c0.2,0.1,0.3,0.1,0.5,0.1c0.2,0,0.4,0,0.6-0.1c0.1-0.1,0.2-0.2,0.2-0.4c0-0.2-0.1-0.3-0.2-0.4   c-0.2-0.1-0.4-0.2-0.6-0.3c-0.4-0.1-0.8-0.3-1.2-0.5c-0.3-0.2-0.4-0.5-0.4-0.8c0-0.3,0.2-0.7,0.4-0.9c0.3-0.2,0.7-0.4,1.1-0.3   c0.3,0,0.6,0.1,0.9,0.1c0.3,0.1,0.5,0.2,0.7,0.4L43.3,194.6L43.3,194.6z"></path>
	<path class="st24" d="M45.3,197.7c-0.4,0-0.8-0.1-1.1-0.5c-0.3-0.3-0.4-0.7-0.4-1.1V196c0-0.4,0.1-0.9,0.4-1.2   c0.5-0.6,1.4-0.7,2-0.2c0.4,0.3,0.5,0.7,0.5,1.2v0.5h-1.9l0,0c0,0.2,0.1,0.4,0.2,0.5c0.1,0.1,0.3,0.2,0.5,0.2c0.2,0,0.3,0,0.5-0.1   c0.1-0.1,0.3-0.1,0.4-0.2l0.2,0.5c-0.2,0.1-0.3,0.2-0.5,0.3C45.8,197.6,45.6,197.6,45.3,197.7z M45.3,195c-0.2,0-0.3,0.1-0.4,0.2   c-0.1,0.1-0.2,0.3-0.2,0.5h1.1v-0.1c0-0.2,0-0.3-0.1-0.5C45.5,195,45.4,194.9,45.3,195L45.3,195z"></path>
	<path class="st24" d="M49.1,197.6c0-0.1-0.1-0.1-0.1-0.2c0-0.1,0-0.1-0.1-0.2c-0.1,0.1-0.2,0.2-0.4,0.3c-0.2,0.1-0.3,0.1-0.5,0.1   c-0.3,0-0.5-0.1-0.8-0.2c-0.2-0.2-0.3-0.4-0.3-0.7c0-0.3,0.1-0.5,0.4-0.7c0.3-0.2,0.7-0.3,1.1-0.2h0.4v-0.3c0-0.1,0-0.3-0.1-0.4   c-0.1-0.1-0.2-0.1-0.4-0.1c-0.1,0-0.2,0-0.3,0l-0.2,0.1l-0.1,0.3h-0.6v-0.7c0.2-0.1,0.4-0.2,0.6-0.3c0.2-0.1,0.4-0.1,0.7-0.1   c0.4,0,0.7,0.1,1,0.3c0.2,0.2,0.4,0.5,0.4,0.8v1.6h0.3v0.5L49.1,197.6L49.1,197.6z M48.3,197c0.1,0,0.2,0,0.4-0.1   c0.1,0,0.2-0.1,0.2-0.2v-0.5h-0.4c-0.2,0-0.3,0-0.4,0.1c-0.1,0.1-0.1,0.2-0.1,0.3c0,0.1,0,0.2,0.1,0.3C48.1,197,48.2,197,48.3,197   L48.3,197z"></path>
	<path class="st24" d="M50.5,197.1l0.4-0.1v-2l-0.5-0.1v-0.5h1.3v0.5c0.1-0.1,0.2-0.3,0.3-0.4c0.1-0.1,0.3-0.1,0.4-0.1h0.1   c0,0,0.1,0,0.1,0l-0.1,0.8h-0.4c-0.1,0-0.2,0-0.3,0.1c-0.1,0.1-0.2,0.1-0.2,0.2v1.6l0.4,0.1v0.5h-1.7L50.5,197.1L50.5,197.1z"></path>
	<path class="st24" d="M54.5,197c0.3,0,0.5-0.2,0.5-0.5c0,0,0,0,0,0h0.8l0,0c0,0.3-0.1,0.6-0.4,0.8c-0.6,0.5-1.5,0.4-2.1-0.1   c-0.3-0.3-0.4-0.8-0.4-1.2v-0.1c0-0.4,0.1-0.8,0.4-1.2c0.3-0.3,0.7-0.5,1.2-0.5c0.2,0,0.5,0,0.7,0.1c0.2,0.1,0.4,0.2,0.5,0.3v0.9   H55l-0.1-0.5c-0.1,0-0.1-0.1-0.2-0.1c-0.1,0-0.1,0-0.2,0c-0.2,0-0.4,0.1-0.5,0.3c-0.1,0.2-0.2,0.5-0.1,0.7v0.1c0,0.2,0,0.5,0.1,0.7   C54.1,196.9,54.3,197,54.5,197z"></path>
	<path class="st24" d="M56.1,197.1l0.4-0.1v-3.5h-0.5V193h1.3v1.9c0.1-0.1,0.2-0.3,0.4-0.3c0.4-0.2,1-0.1,1.3,0.2   c0.2,0.3,0.3,0.6,0.3,1v1.3l0.4,0.1v0.5h-1.7v-0.6l0.4-0.1v-1.3c0-0.2,0-0.4-0.1-0.5c-0.1-0.1-0.2-0.2-0.4-0.2   c-0.1,0-0.2,0-0.3,0.1c-0.1,0.1-0.2,0.1-0.2,0.2v1.8l0.4,0.1v0.5h-1.7L56.1,197.1L56.1,197.1z"></path>
	<path class="st24" d="M63.1,193.7l-0.3,0.1l0.8,2.6l0.1,0.2l0,0l0.1-0.2l0.8-2.6l-0.3-0.1v-0.5h1.6v0.5l-0.4,0.1l-1.2,3.8h-0.9   l-1.3-3.8l-0.4-0.1v-0.5h1.6L63.1,193.7L63.1,193.7z"></path>
	<path class="st24" d="M66,197.1l0.4-0.1v-2l-0.5-0.1v-0.5h1.3v2.6l0.4,0.1v0.5H66V197.1L66,197.1z M67.3,193.6h-0.9v-0.7h0.9V193.6   z"></path>
	<path class="st24" d="M70.6,195.5h-0.6l-0.1-0.4c-0.1-0.1-0.1-0.1-0.2-0.1c-0.1,0-0.2-0.1-0.3-0.1c-0.1,0-0.3,0-0.4,0.1   c-0.1,0.1-0.2,0.3-0.1,0.4c0,0,0.1,0.1,0.1,0.1c0.2,0.1,0.3,0.1,0.5,0.2c0.3,0.1,0.6,0.2,0.9,0.4c0.2,0.2,0.3,0.4,0.3,0.6   c0,0.3-0.1,0.5-0.4,0.7c-0.3,0.2-0.6,0.3-1,0.3c-0.2,0-0.5,0-0.7-0.1c-0.2-0.1-0.4-0.2-0.6-0.3v-0.8h0.6l0.1,0.4   C69,197,69,197,69.1,197c0.1,0,0.2,0,0.3,0c0.1,0,0.3,0,0.4-0.1c0.1-0.1,0.1-0.1,0.1-0.2c0-0.1-0.1-0.2-0.1-0.2   c-0.2-0.1-0.3-0.2-0.5-0.2c-0.3-0.1-0.6-0.2-0.9-0.3c-0.2-0.2-0.3-0.4-0.3-0.6c0-0.3,0.1-0.5,0.3-0.7c0.3-0.2,0.6-0.3,1-0.3   c0.2,0,0.5,0,0.7,0.1c0.2,0.1,0.4,0.1,0.5,0.2L70.6,195.5z"></path>
	<path class="st24" d="M71.1,197.1l0.4-0.1v-2l-0.5-0.1v-0.5h1.3v2.6l0.4,0.1v0.5h-1.7L71.1,197.1L71.1,197.1z M72.4,193.6h-0.9   v-0.7h0.9V193.6z"></path>
	<path class="st24" d="M76.3,196.1c0,0.4-0.1,0.8-0.3,1.2c-0.2,0.3-0.6,0.4-0.9,0.4c-0.2,0-0.3,0-0.5-0.1c-0.1-0.1-0.3-0.2-0.4-0.3   l-0.1,0.4h-0.7v-4.1l-0.5-0.1v-0.5h1.3v1.8c0.1-0.1,0.2-0.2,0.3-0.3c0.1-0.1,0.3-0.1,0.4-0.1c0.4,0,0.8,0.2,1,0.5   c0.2,0.4,0.3,0.8,0.3,1.2L76.3,196.1L76.3,196.1z M75.4,196c0-0.3,0-0.5-0.1-0.8c-0.1-0.2-0.3-0.3-0.5-0.3c-0.2,0-0.5,0.1-0.6,0.3   v1.4c0.1,0.1,0.1,0.2,0.2,0.2c0.1,0.1,0.2,0.1,0.3,0.1c0.2,0,0.4-0.1,0.5-0.2C75.3,196.5,75.4,196.3,75.4,196L75.4,196L75.4,196z"></path>
	<path class="st24" d="M76.7,197.1l0.4-0.1v-2l-0.5-0.1v-0.5h1.3v2.6l0.4,0.1v0.5h-1.7L76.7,197.1L76.7,197.1z M77.9,193.6h-0.9   v-0.7h0.9L77.9,193.6z"></path>
	<path class="st24" d="M78.5,193.4v-0.5h1.3v4.1l0.4,0.1v0.5h-1.7v-0.5L79,197v-3.5L78.5,193.4z"></path>
	<path class="st24" d="M80.6,197.1L81,197v-2l-0.5-0.1v-0.5h1.3v2.6l0.4,0.1v0.5h-1.7L80.6,197.1L80.6,197.1z M81.9,193.6H81v-0.7   h0.9V193.6z"></path>
	<path class="st24" d="M83.9,193.6v0.8h0.6v0.6h-0.6v1.6c0,0.1,0,0.2,0.1,0.3c0.1,0.1,0.1,0.1,0.2,0.1h0.2h0.1l0.1,0.6   c-0.1,0-0.2,0.1-0.3,0.1c-0.1,0-0.2,0-0.3,0c-0.3,0-0.5-0.1-0.7-0.2c-0.2-0.2-0.3-0.5-0.2-0.8V195h-0.5v-0.6h0.5v-0.8H83.9z"></path>
	<path class="st24" d="M88.2,194.9l-0.3,0.1l-1.2,3.2c-0.1,0.2-0.2,0.4-0.4,0.6c-0.2,0.2-0.4,0.3-0.7,0.2c-0.1,0-0.1,0-0.2,0   l-0.2-0.1l0.1-0.6h0.2c0.1,0,0.2,0,0.3-0.1c0.1-0.1,0.1-0.2,0.2-0.3l0.1-0.2l-1-2.7l-0.3-0.1v-0.5h1.6v0.5l-0.4,0.1l0.4,1.3   l0.1,0.2l0,0l0.5-1.5l-0.4-0.1v-0.5h1.6L88.2,194.9L88.2,194.9z"></path>
	<polygon class="st13" points="66.5,181 69.9,184.8 73.3,181 101.5,181 101.5,161.9 38.8,161.9 38.8,181  "></polygon>
	<line class="st11" x1="110.6" y1="201.4" x2="39.6" y2="201.4"></line>
	<path class="st0" d="M58.6,168.7c0.4,0,0.8,0.1,1.2,0.3c0.3,0.2,0.5,0.6,0.4,1c0,0.2-0.1,0.4-0.2,0.6c-0.1,0.2-0.3,0.3-0.5,0.4   c0.2,0.1,0.4,0.2,0.6,0.4c0.1,0.2,0.2,0.4,0.2,0.6v0.2c0,0.1,0,0.2,0.1,0.2c0.1,0.1,0.1,0.1,0.2,0.1h0.1v0.5h-0.4   c-0.2,0-0.4-0.1-0.6-0.2c-0.1-0.2-0.2-0.4-0.2-0.6V172c0-0.2-0.1-0.4-0.2-0.5c-0.1-0.1-0.3-0.2-0.5-0.2H58v1.1l0.5,0.1v0.5h-1.8   v-0.5l0.5-0.1v-3.1l-0.5-0.1v-0.5L58.6,168.7z M58,170.6h0.6c0.2,0,0.4,0,0.6-0.2c0.1-0.1,0.2-0.3,0.2-0.4c0-0.2-0.1-0.3-0.2-0.5   c-0.1-0.1-0.3-0.2-0.5-0.2H58L58,170.6L58,170.6z"></path>
	<path class="st0" d="M62.9,173c0-0.1,0-0.1-0.1-0.2c0-0.1,0-0.1,0-0.2c-0.1,0.1-0.2,0.2-0.4,0.3c-0.2,0.1-0.3,0.1-0.5,0.1   c-0.3,0-0.5-0.1-0.8-0.2c-0.2-0.2-0.3-0.4-0.3-0.7c0-0.3,0.1-0.5,0.4-0.7c0.3-0.2,0.7-0.3,1.1-0.2h0.4v-0.3c0-0.1,0-0.3-0.1-0.4   c-0.1-0.1-0.2-0.1-0.4-0.1c-0.1,0-0.2,0-0.3,0l-0.2,0.1l-0.1,0.3h-0.7v-0.7c0.2-0.1,0.4-0.2,0.6-0.3c0.2-0.1,0.4-0.1,0.7-0.1   c0.4,0,0.7,0.1,1,0.3c0.2,0.2,0.4,0.5,0.4,0.8v1.7h0.3v0.5L62.9,173L62.9,173z M62.2,172.4c0.1,0,0.2,0,0.4-0.1   c0.1,0,0.2-0.1,0.2-0.2v-0.5h-0.4c-0.2,0-0.3,0-0.4,0.1c-0.1,0.1-0.1,0.2-0.1,0.3c0,0.1,0,0.2,0.1,0.2   C62,172.4,62.1,172.5,62.2,172.4L62.2,172.4z"></path>
	<path class="st0" d="M64.2,172.5l0.4-0.1v-2l-0.5-0.1v-0.5h1.3v0.5c0.1-0.2,0.2-0.3,0.4-0.4c0.2-0.1,0.3-0.1,0.5-0.1   c0.3,0,0.6,0.1,0.8,0.3c0.2,0.3,0.3,0.6,0.3,1v1.4l0.4,0.1v0.5h-1.6v-0.6l0.4-0.1V171c0-0.2,0-0.3-0.1-0.5   c-0.1-0.1-0.2-0.1-0.4-0.1c-0.1,0-0.2,0-0.3,0.1c-0.1,0.1-0.2,0.1-0.2,0.2v1.7l0.4,0.1v0.5h-1.6L64.2,172.5L64.2,172.5z"></path>
	<path class="st0" d="M68.1,168.9v-0.5h1.3v2.7h0.2l0.5-0.7h-0.3v-0.5h1.6v0.5l-0.4,0.1l-0.6,0.8l0.8,1.2l0.3,0.1v0.5h-1.5v-0.6h0.2   l-0.5-0.8h-0.3v0.8l0.4,0.1v0.5h-1.7v-0.6l0.4-0.1V169L68.1,168.9z"></path>
	<path class="st0" d="M71.9,172.5l0.4-0.1v-2l-0.5-0.1v-0.5h1.3v2.6l0.4,0.1v0.5h-1.7L71.9,172.5L71.9,172.5z M73.2,169h-0.9v-0.7   h0.9V169z"></path>
	<path class="st0" d="M73.8,172.5l0.4-0.1v-2l-0.5-0.1v-0.5h1.3v0.5c0.1-0.2,0.2-0.3,0.4-0.4c0.2-0.1,0.3-0.1,0.5-0.1   c0.3,0,0.6,0.1,0.8,0.3c0.2,0.3,0.3,0.6,0.3,1v1.4l0.4,0.1v0.5h-1.7v-0.6l0.4-0.1V171c0.1-0.2,0-0.4-0.1-0.5   c-0.1-0.1-0.2-0.1-0.4-0.1c-0.1,0-0.2,0-0.3,0.1c-0.1,0.1-0.2,0.1-0.2,0.2v1.7l0.4,0.1v0.5h-1.6L73.8,172.5L73.8,172.5z"></path>
	<path class="st0" d="M77.8,171.4c0-0.4,0.1-0.9,0.3-1.2c0.2-0.3,0.6-0.5,1-0.5c0.2,0,0.3,0,0.5,0.1c0.1,0.1,0.3,0.2,0.4,0.3   l0.1-0.4h0.8v3.1c0,0.4-0.1,0.7-0.4,1c-0.3,0.3-0.7,0.4-1.1,0.4c-0.2,0-0.4,0-0.5-0.1c-0.2-0.1-0.3-0.1-0.5-0.2l0.2-0.6   c0.3,0.1,0.6,0.2,0.9,0.2c0.2,0,0.4-0.1,0.5-0.2c0.1-0.2,0.2-0.3,0.2-0.5v-0.2c-0.1,0.1-0.2,0.2-0.3,0.3c-0.1,0.1-0.3,0.1-0.4,0.1   c-0.4,0-0.7-0.1-0.9-0.4C78,172.2,77.9,171.8,77.8,171.4L77.8,171.4L77.8,171.4z M78.7,171.5c0,0.2,0,0.5,0.1,0.7   c0.1,0.2,0.3,0.3,0.5,0.2c0.1,0,0.2,0,0.3-0.1c0.1-0.1,0.2-0.1,0.2-0.2v-1.4c-0.1-0.1-0.1-0.2-0.2-0.2c-0.1-0.1-0.2-0.1-0.3-0.1   c-0.2,0-0.4,0.1-0.5,0.3C78.7,170.9,78.7,171.2,78.7,171.5L78.7,171.5L78.7,171.5z"></path>
	<path class="st0" d="M83.9,170.9h-0.6l-0.1-0.4c-0.1-0.1-0.1-0.1-0.2-0.1c-0.1,0-0.2-0.1-0.3-0.1c-0.1,0-0.3,0-0.4,0.1   c-0.1,0.1-0.2,0.3-0.1,0.4c0,0,0.1,0.1,0.1,0.1c0.2,0.1,0.3,0.1,0.5,0.2c0.3,0.1,0.6,0.2,0.9,0.4c0.2,0.2,0.3,0.4,0.3,0.6   c0,0.3-0.1,0.5-0.4,0.7c-0.3,0.2-0.6,0.3-1,0.3c-0.2,0-0.5,0-0.7-0.1c-0.2-0.1-0.4-0.2-0.6-0.3v-0.7H82l0.1,0.4   c0.1,0.1,0.1,0.1,0.2,0.1c0.1,0,0.2,0,0.3,0c0.1,0,0.3,0,0.4-0.1c0.1-0.1,0.1-0.1,0.1-0.2c0-0.1-0.1-0.2-0.1-0.2   c-0.2-0.1-0.3-0.2-0.5-0.2c-0.3-0.1-0.6-0.2-0.9-0.3c-0.2-0.2-0.3-0.4-0.3-0.6c0-0.3,0.1-0.5,0.3-0.7c0.3-0.2,0.6-0.3,1-0.3   c0.2,0,0.5,0,0.7,0.1c0.2,0.1,0.4,0.1,0.5,0.2L83.9,170.9z"></path>
	<path class="st24" d="M115.2,171.1h-1.5v1.3h1.4v-0.5h0.7v1.2h-3.4v-0.5l0.5-0.1v-3.1l-0.5-0.1v-0.5h3.4v1.2h-0.7v-0.5h-1.4v1.1   h1.5V171.1L115.2,171.1z"></path>
	<path class="st24" d="M116.3,172.5l0.4-0.1v-2l-0.5-0.1v-0.5h1.3v0.5c0.1-0.2,0.2-0.3,0.4-0.4c0.2-0.1,0.3-0.1,0.5-0.1   c0.3,0,0.6,0.1,0.8,0.3c0.2,0.3,0.3,0.6,0.3,1v1.4l0.4,0.1v0.5h-1.7v-0.6l0.4-0.1V171c0-0.2,0-0.3-0.1-0.5   c-0.1-0.1-0.2-0.1-0.4-0.1c-0.1,0-0.2,0-0.3,0.1c-0.1,0.1-0.2,0.1-0.2,0.2v1.7l0.4,0.1v0.5h-1.6L116.3,172.5L116.3,172.5z"></path>
	<path class="st24" d="M120.3,171.4c0-0.4,0.1-0.9,0.3-1.2c0.2-0.3,0.6-0.5,1-0.5c0.2,0,0.3,0,0.5,0.1c0.1,0.1,0.3,0.2,0.4,0.3   l0.1-0.4h0.8v3.1c0,0.4-0.1,0.7-0.4,1c-0.3,0.3-0.7,0.4-1.1,0.4c-0.2,0-0.4,0-0.5-0.1c-0.2-0.1-0.3-0.1-0.5-0.2l0.2-0.6   c0.3,0.1,0.6,0.2,0.9,0.2c0.2,0,0.4-0.1,0.5-0.2c0.1-0.2,0.2-0.3,0.2-0.5v-0.2c-0.1,0.1-0.2,0.2-0.3,0.3c-0.1,0.1-0.3,0.1-0.4,0.1   c-0.4,0-0.7-0.1-0.9-0.4C120.5,172.2,120.3,171.8,120.3,171.4L120.3,171.4L120.3,171.4z M121.1,171.5c0,0.2,0,0.5,0.1,0.7   c0.1,0.2,0.3,0.3,0.5,0.2c0.1,0,0.2,0,0.3-0.1c0.1-0.1,0.2-0.1,0.2-0.2v-1.4c-0.1-0.1-0.1-0.1-0.2-0.2c-0.1-0.1-0.2-0.1-0.3-0.1   c-0.2,0-0.4,0.1-0.5,0.3C121.1,170.9,121.1,171.2,121.1,171.5L121.1,171.5L121.1,171.5z"></path>
	<path class="st24" d="M123.7,172.5l0.4-0.1v-2l-0.5-0.1v-0.5h1.3v2.6l0.4,0.1v0.5h-1.7L123.7,172.5L123.7,172.5z M125,169h-0.9   v-0.7h0.9L125,169z"></path>
	<path class="st24" d="M125.7,172.5l0.4-0.1v-2l-0.5-0.1v-0.5h1.3v0.5c0.1-0.2,0.2-0.3,0.4-0.4c0.2-0.1,0.3-0.1,0.5-0.1   c0.3,0,0.6,0.1,0.8,0.3c0.2,0.3,0.3,0.6,0.3,1v1.4l0.4,0.1v0.5h-1.7v-0.6l0.4-0.1V171c0-0.2,0-0.3-0.1-0.5   c-0.1-0.1-0.2-0.1-0.4-0.1c-0.1,0-0.2,0-0.3,0.1c-0.1,0.1-0.2,0.1-0.2,0.2v1.7l0.4,0.1v0.5h-1.6L125.7,172.5L125.7,172.5z"></path>
	<path class="st24" d="M131.1,173.1c-0.4,0-0.8-0.1-1.1-0.4c-0.3-0.3-0.4-0.7-0.4-1.1v-0.1c0-0.4,0.1-0.9,0.4-1.2   c0.5-0.6,1.4-0.7,2-0.2c0.4,0.3,0.5,0.7,0.5,1.2v0.5h-2l0,0c0,0.2,0.1,0.4,0.2,0.5c0.1,0.1,0.3,0.2,0.5,0.2c0.2,0,0.3,0,0.5-0.1   c0.1-0.1,0.3-0.1,0.4-0.2l0.2,0.5c-0.2,0.1-0.3,0.2-0.5,0.3C131.5,173,131.3,173.1,131.1,173.1z M131,170.4c-0.2,0-0.3,0.1-0.4,0.2   c-0.1,0.1-0.2,0.3-0.2,0.5h1.1V171c0-0.2,0-0.3-0.1-0.4C131.3,170.5,131.2,170.4,131,170.4L131,170.4z"></path>
	<path class="st24" d="M135.5,170.9h-0.6l-0.1-0.4c-0.1-0.1-0.1-0.1-0.2-0.1c-0.1,0-0.2-0.1-0.3-0.1c-0.1,0-0.3,0-0.4,0.1   c-0.1,0.1-0.2,0.3-0.1,0.4c0,0,0.1,0.1,0.1,0.1c0.2,0.1,0.3,0.1,0.5,0.2c0.3,0.1,0.6,0.2,0.9,0.4c0.2,0.2,0.3,0.4,0.3,0.6   c0,0.3-0.1,0.5-0.4,0.7c-0.3,0.2-0.6,0.3-1,0.3c-0.2,0-0.5,0-0.7-0.1c-0.2-0.1-0.4-0.2-0.6-0.3v-0.7h0.6l0.1,0.4   c0.1,0.1,0.1,0.1,0.2,0.1c0.1,0,0.2,0,0.3,0c0.1,0,0.3,0,0.4-0.1c0.1-0.1,0.1-0.1,0.1-0.2c0-0.1-0.1-0.2-0.1-0.2   c-0.2-0.1-0.3-0.2-0.5-0.2c-0.3-0.1-0.6-0.2-0.9-0.3c-0.2-0.2-0.3-0.4-0.3-0.6c0-0.3,0.1-0.5,0.3-0.7c0.3-0.2,0.6-0.3,1-0.3   c0.2,0,0.5,0,0.7,0.1c0.2,0.1,0.4,0.1,0.5,0.2L135.5,170.9z"></path>
	<path class="st24" d="M158.3,170.1h-0.6l-0.1-0.6c-0.1-0.1-0.2-0.2-0.3-0.2c-0.2-0.1-0.3-0.1-0.5-0.1c-0.3,0-0.7,0.1-0.9,0.4   c-0.2,0.3-0.3,0.7-0.3,1.1v0.1c0,0.4,0.1,0.8,0.3,1.1c0.2,0.3,0.5,0.4,0.9,0.4c0.2,0,0.3,0,0.5-0.1c0.1,0,0.2-0.1,0.3-0.2l0.1-0.6   h0.6v0.9c-0.2,0.2-0.4,0.4-0.7,0.5c-0.3,0.1-0.6,0.2-0.9,0.2c-0.5,0-1.1-0.2-1.4-0.6c-0.4-0.4-0.6-1-0.6-1.6v-0.1   c0-0.6,0.2-1.1,0.6-1.6c0.4-0.4,0.9-0.7,1.5-0.6c0.3,0,0.6,0.1,0.9,0.2c0.3,0.1,0.5,0.3,0.7,0.5V170.1L158.3,170.1z"></path>
	<path class="st24" d="M158.7,171.4c0-0.4,0.1-0.8,0.4-1.2c0.6-0.6,1.6-0.6,2.2,0c0.3,0.3,0.4,0.8,0.4,1.2v0.1   c0,0.4-0.1,0.9-0.4,1.2c-0.6,0.6-1.6,0.6-2.2,0C158.8,172.3,158.7,171.9,158.7,171.4L158.7,171.4z M159.6,171.4   c0,0.2,0.1,0.5,0.2,0.7c0.2,0.3,0.6,0.4,0.8,0.2c0,0,0,0,0,0l0.2-0.2c0.1-0.2,0.2-0.5,0.2-0.7v-0.1c0-0.2-0.1-0.5-0.2-0.7   c-0.2-0.3-0.5-0.4-0.8-0.2c-0.1,0-0.1,0.1-0.2,0.2C159.7,170.9,159.6,171.1,159.6,171.4L159.6,171.4L159.6,171.4z"></path>
	<path class="st24" d="M162.1,170.3v-0.5h1.3v0.4c0.1-0.1,0.2-0.3,0.4-0.4c0.2-0.1,0.3-0.1,0.5-0.1c0.2,0,0.4,0,0.5,0.1   c0.2,0.1,0.3,0.2,0.3,0.4c0.1-0.2,0.2-0.3,0.4-0.4c0.2-0.1,0.4-0.1,0.6-0.1c0.3,0,0.6,0.1,0.8,0.3c0.2,0.3,0.3,0.6,0.3,1v1.3   l0.4,0.1v0.5h-1.7v-0.5l0.4-0.1v-1.3c0-0.2,0-0.4-0.1-0.5c-0.1-0.1-0.2-0.2-0.4-0.1c-0.1,0-0.2,0-0.3,0.1c-0.1,0.1-0.2,0.1-0.2,0.2   v1.7l0.4,0.1v0.5h-1.5v-0.6l0.4-0.1v-1.3c0-0.2,0-0.4-0.1-0.5c-0.1-0.1-0.2-0.2-0.4-0.1c-0.1,0-0.2,0-0.3,0.1   c-0.1,0.1-0.2,0.1-0.2,0.2v1.8l0.4,0.1v0.5h-1.7v-0.6l0.4-0.1v-2L162.1,170.3z"></path>
	<path class="st24" d="M167.8,170.3v-0.5h1.3v0.4c0.1-0.1,0.2-0.3,0.3-0.3c0.1-0.1,0.3-0.1,0.5-0.1c0.4,0,0.7,0.2,0.9,0.5   c0.2,0.4,0.4,0.8,0.3,1.2v0.1c0,0.4-0.1,0.8-0.3,1.1c-0.2,0.3-0.6,0.4-0.9,0.4c-0.2,0-0.3,0-0.5-0.1c-0.1-0.1-0.3-0.2-0.3-0.3v0.9   l0.4,0.1v0.5h-1.7v-0.5l0.4-0.1v-3.2L167.8,170.3z M170.3,171.4c0-0.3-0.1-0.5-0.2-0.8c-0.1-0.2-0.3-0.3-0.5-0.3   c-0.1,0-0.2,0-0.3,0.1c-0.1,0.1-0.2,0.1-0.2,0.2v1.4c0.1,0.1,0.1,0.2,0.2,0.2c0.1,0.1,0.2,0.1,0.3,0.1c0.2,0,0.4-0.1,0.5-0.2   C170.3,172,170.3,171.7,170.3,171.4L170.3,171.4L170.3,171.4z"></path>
	<path class="st24" d="M173.2,173.1c-0.4,0-0.8-0.1-1.1-0.4c-0.3-0.3-0.4-0.7-0.4-1.1v-0.1c0-0.4,0.1-0.9,0.4-1.2   c0.6-0.6,1.5-0.6,2.1-0.1c0,0,0,0,0,0c0.3,0.3,0.4,0.7,0.4,1.1v0.5h-1.9l0,0c0,0.2,0.1,0.4,0.2,0.5c0.1,0.1,0.3,0.2,0.5,0.2   c0.2,0,0.3,0,0.5-0.1c0.1-0.1,0.3-0.1,0.4-0.2l0.2,0.5c-0.2,0.1-0.3,0.2-0.5,0.3C173.6,173,173.4,173.1,173.2,173.1z M173.1,170.4   c-0.2,0-0.3,0.1-0.4,0.2c-0.1,0.1-0.2,0.3-0.2,0.5h1.1V171c0-0.2,0-0.3-0.1-0.4C173.4,170.4,173.2,170.4,173.1,170.4z"></path>
	<path class="st24" d="M176.2,169v0.8h0.6v0.6h-0.6v1.6c0,0.1,0,0.2,0.1,0.3c0.1,0.1,0.1,0.1,0.2,0.1h0.2h0.1l0.1,0.6   c-0.1,0-0.2,0.1-0.3,0.1c-0.1,0-0.2,0-0.3,0c-0.3,0-0.5-0.1-0.7-0.2c-0.2-0.2-0.3-0.5-0.2-0.8v-1.6h-0.5v-0.6h0.5V169L176.2,169z"></path>
	<path class="st24" d="M177.1,172.5l0.4-0.1v-2l-0.5-0.1v-0.5h1.3v2.6l0.4,0.1v0.5h-1.7L177.1,172.5L177.1,172.5z M178.4,169h-0.9   v-0.7h0.9V169z"></path>
	<path class="st24" d="M180.4,169v0.8h0.6v0.6h-0.6v1.6c0,0.1,0,0.2,0.1,0.3c0.1,0.1,0.1,0.1,0.2,0.1h0.2h0.1l0.1,0.6   c-0.1,0-0.2,0.1-0.3,0.1c-0.1,0-0.2,0-0.3,0c-0.3,0-0.5-0.1-0.7-0.2c-0.2-0.2-0.3-0.5-0.2-0.8v-1.6h-0.5v-0.6h0.5V169L180.4,169z"></path>
	<path class="st24" d="M181.4,172.5l0.4-0.1v-2l-0.5-0.1v-0.5h1.3v2.6l0.4,0.1v0.5h-1.7L181.4,172.5L181.4,172.5z M182.7,169h-0.9   v-0.7h0.9V169z"></path>
	<path class="st24" d="M183.4,171.4c0-0.4,0.1-0.8,0.4-1.2c0.6-0.6,1.6-0.6,2.2,0c0.3,0.3,0.4,0.7,0.4,1.2v0.1   c0,0.4-0.1,0.9-0.4,1.2c-0.6,0.6-1.6,0.6-2.2,0C183.5,172.3,183.4,171.9,183.4,171.4L183.4,171.4z M184.3,171.4   c0,0.2,0.1,0.5,0.2,0.7c0.2,0.3,0.6,0.4,0.8,0.2c0,0,0,0,0,0l0.2-0.2c0.1-0.2,0.2-0.5,0.2-0.7v-0.1c0-0.2-0.1-0.5-0.2-0.7   c-0.2-0.3-0.5-0.4-0.8-0.2c-0.1,0-0.1,0.1-0.2,0.2C184.4,170.9,184.3,171.1,184.3,171.4L184.3,171.4L184.3,171.4z"></path>
	<path class="st24" d="M186.8,172.5l0.4-0.1v-2l-0.5-0.1v-0.5h1.3v0.5c0.1-0.2,0.2-0.3,0.4-0.4c0.2-0.1,0.3-0.1,0.5-0.1   c0.3,0,0.6,0.1,0.8,0.3c0.2,0.3,0.3,0.6,0.3,1v1.4l0.4,0.1v0.5h-1.7v-0.6l0.4-0.1V171c0-0.2,0-0.3-0.1-0.5   c-0.1-0.1-0.2-0.1-0.4-0.1c-0.1,0-0.2,0-0.3,0.1c-0.1,0.1-0.2,0.1-0.2,0.2v1.7l0.4,0.1v0.5h-1.6L186.8,172.5L186.8,172.5z"></path>
	<path class="st24" d="M208.1,170.9c0,0.6-0.2,1.2-0.6,1.6c-0.8,0.8-2,0.8-2.8,0.1l-0.1-0.1c-0.4-0.4-0.6-1-0.5-1.6v-0.1   c0-0.6,0.2-1.2,0.5-1.6c0.4-0.4,0.9-0.7,1.4-0.6c0.5,0,1.1,0.2,1.4,0.6C207.9,169.6,208.1,170.2,208.1,170.9L208.1,170.9   L208.1,170.9z M207.2,170.8c0-0.4-0.1-0.8-0.3-1.1c-0.2-0.3-0.5-0.4-0.8-0.4c-0.3,0-0.6,0.1-0.8,0.4c-0.2,0.3-0.3,0.7-0.3,1.1v0.1   c0,0.4,0.1,0.8,0.3,1.1c0.2,0.3,0.5,0.4,0.8,0.4c0.3,0,0.7-0.1,0.8-0.4C207.1,171.7,207.2,171.3,207.2,170.8L207.2,170.8z"></path>
	<path class="st24" d="M208.4,170.3v-0.5h1.3l0.1,0.4c0.1-0.1,0.2-0.3,0.3-0.3c0.1-0.1,0.3-0.1,0.5-0.1c0.4,0,0.7,0.2,0.9,0.5   c0.2,0.4,0.4,0.8,0.3,1.2v0.1c0,0.4-0.1,0.8-0.3,1.1c-0.2,0.3-0.6,0.4-0.9,0.4c-0.2,0-0.3,0-0.5-0.1c-0.1-0.1-0.3-0.2-0.3-0.3v0.9   l0.4,0.1v0.5h-1.7v-0.5l0.4-0.1v-3.2L208.4,170.3z M210.9,171.4c0-0.3-0.1-0.5-0.1-0.8c-0.1-0.2-0.3-0.3-0.5-0.3   c-0.1,0-0.2,0-0.3,0.1c-0.1,0.1-0.2,0.1-0.2,0.2v1.4c0.1,0.1,0.1,0.2,0.2,0.2c0.1,0.1,0.2,0.1,0.3,0.1c0.2,0,0.4-0.1,0.5-0.2   C210.9,172,210.9,171.7,210.9,171.4L210.9,171.4L210.9,171.4z"></path>
	<path class="st24" d="M212.1,170.3v-0.5h1.3v0.4c0.1-0.1,0.2-0.3,0.3-0.3c0.1-0.1,0.3-0.1,0.5-0.1c0.4,0,0.7,0.2,0.9,0.5   c0.2,0.4,0.4,0.8,0.3,1.2v0.1c0,0.4-0.1,0.8-0.3,1.1c-0.2,0.3-0.6,0.4-0.9,0.4c-0.2,0-0.3,0-0.5-0.1c-0.1-0.1-0.3-0.2-0.3-0.3v0.9   l0.4,0.1v0.5h-1.7v-0.5l0.4-0.1v-3.2L212.1,170.3z M214.6,171.4c0-0.3-0.1-0.5-0.2-0.8c-0.1-0.2-0.3-0.3-0.5-0.3   c-0.1,0-0.2,0-0.3,0.1c-0.1,0.1-0.2,0.1-0.2,0.2v1.4c0.1,0.1,0.1,0.2,0.2,0.2c0.1,0.1,0.2,0.1,0.3,0.1c0.2,0,0.4-0.1,0.5-0.2   C214.5,172,214.6,171.7,214.6,171.4L214.6,171.4L214.6,171.4z"></path>
	<path class="st24" d="M215.9,171.4c0-0.4,0.1-0.8,0.4-1.2c0.6-0.6,1.6-0.6,2.2,0c0.3,0.3,0.4,0.7,0.4,1.2v0.1   c0,0.4-0.1,0.9-0.4,1.2c-0.6,0.6-1.6,0.6-2.2,0C216,172.3,215.9,171.9,215.9,171.4L215.9,171.4z M216.8,171.4   c0,0.2,0.1,0.5,0.2,0.7c0.1,0.2,0.3,0.3,0.5,0.3c0.2,0,0.4-0.1,0.5-0.3c0.1-0.2,0.2-0.5,0.2-0.7v-0.1c0-0.2-0.1-0.5-0.2-0.7   c-0.2-0.3-0.5-0.4-0.8-0.2c-0.1,0-0.1,0.1-0.2,0.2C216.8,170.9,216.8,171.1,216.8,171.4L216.8,171.4z"></path>
	<path class="st24" d="M219.4,172.5l0.4-0.1v-2l-0.5-0.1v-0.5h1.3v0.5c0.1-0.1,0.2-0.3,0.3-0.4c0.1-0.1,0.3-0.1,0.4-0.1h0.1   c0,0,0.1,0,0.1,0l-0.1,0.8h-0.4c-0.1,0-0.2,0-0.3,0.1c-0.1,0.1-0.2,0.1-0.2,0.2v1.6l0.4,0.1v0.5h-1.7L219.4,172.5L219.4,172.5z"></path>
	<path class="st24" d="M223.3,169v0.8h0.6v0.6h-0.6v1.6c0,0.1,0,0.2,0.1,0.3c0.1,0.1,0.1,0.1,0.2,0.1h0.2h0.1l0.1,0.6   c-0.1,0-0.2,0.1-0.3,0.1c-0.1,0-0.2,0-0.3,0c-0.3,0-0.5-0.1-0.7-0.2c-0.2-0.2-0.3-0.5-0.2-0.8v-1.6H222v-0.6h0.5V169L223.3,169z"></path>
	<path class="st24" d="M226.6,172.6c-0.2,0.3-0.5,0.5-0.9,0.5c-0.3,0-0.6-0.1-0.8-0.3c-0.2-0.3-0.3-0.6-0.3-1v-1.3l-0.4-0.1v-0.5   h1.2v2c0,0.2,0,0.4,0.1,0.5c0.1,0.1,0.2,0.2,0.4,0.1c0.1,0,0.2,0,0.4-0.1c0.1-0.1,0.2-0.1,0.2-0.2v-1.7l-0.4-0.1v-0.5h1.3v2.6   l0.4,0.1v0.5h-1.2L226.6,172.6z"></path>
	<path class="st24" d="M228.1,172.5l0.4-0.1v-2l-0.5-0.1v-0.5h1.3v0.5c0.1-0.2,0.2-0.3,0.4-0.4c0.2-0.1,0.3-0.1,0.5-0.1   c0.3,0,0.6,0.1,0.8,0.3c0.2,0.3,0.3,0.6,0.3,1v1.4l0.4,0.1v0.5h-1.6v-0.6l0.4-0.1V171c0-0.2,0-0.3-0.1-0.5   c-0.1-0.1-0.2-0.1-0.4-0.1c-0.1,0-0.2,0-0.3,0.1c-0.1,0.1-0.2,0.1-0.2,0.2v1.7l0.4,0.1v0.5h-1.7V172.5z"></path>
	<path class="st24" d="M232,172.5l0.4-0.1v-2l-0.5-0.1v-0.5h1.3v2.6l0.4,0.1v0.5H232L232,172.5L232,172.5z M233.3,169h-0.9v-0.7h0.9   V169z"></path>
	<path class="st24" d="M235.3,169v0.8h0.6v0.6h-0.6v1.6c0,0.1,0,0.2,0.1,0.3c0.1,0.1,0.1,0.1,0.2,0.1h0.2h0.1l0.1,0.6   c-0.1,0-0.2,0.1-0.3,0.1c-0.1,0-0.2,0-0.3,0c-0.3,0-0.5-0.1-0.7-0.2c-0.2-0.2-0.3-0.5-0.2-0.8v-1.6H234v-0.6h0.5V169L235.3,169z"></path>
	<path class="st24" d="M236.3,172.5l0.4-0.1v-2l-0.5-0.1v-0.5h1.3v2.6l0.4,0.1v0.5h-1.7L236.3,172.5L236.3,172.5z M237.6,169h-0.9   v-0.7h0.9V169z"></path>
	<path class="st24" d="M239.8,173.1c-0.4,0-0.8-0.1-1.1-0.4c-0.3-0.3-0.4-0.7-0.4-1.1v-0.1c0-0.4,0.1-0.9,0.4-1.2   c0.5-0.6,1.4-0.7,2-0.2c0.4,0.3,0.5,0.7,0.5,1.2v0.5h-1.9l0,0c0,0.2,0.1,0.4,0.2,0.5c0.1,0.1,0.3,0.2,0.5,0.2c0.2,0,0.3,0,0.5-0.1   c0.1-0.1,0.3-0.1,0.4-0.2l0.2,0.5c-0.2,0.1-0.3,0.2-0.5,0.3C240.3,173,240.1,173.1,239.8,173.1z M239.8,170.4   c-0.2,0-0.3,0.1-0.4,0.2c-0.1,0.1-0.2,0.3-0.2,0.5h1.1V171c0-0.2,0-0.3-0.1-0.4C240,170.4,239.9,170.4,239.8,170.4L239.8,170.4z"></path>
	<path class="st24" d="M244.2,170.9h-0.6l-0.1-0.4c-0.1-0.1-0.1-0.1-0.2-0.1c-0.1,0-0.2-0.1-0.3-0.1c-0.1,0-0.3,0-0.4,0.1   c-0.1,0.1-0.2,0.3-0.1,0.4c0,0,0.1,0.1,0.1,0.1c0.2,0.1,0.3,0.1,0.5,0.2c0.3,0.1,0.6,0.2,0.9,0.4c0.2,0.2,0.3,0.4,0.3,0.6   c0,0.3-0.1,0.5-0.4,0.7c-0.3,0.2-0.6,0.3-1,0.3c-0.2,0-0.5,0-0.7-0.1c-0.2-0.1-0.4-0.2-0.6-0.3v-0.7h0.6l0.1,0.4   c0.1,0.1,0.1,0.1,0.2,0.1c0.1,0,0.2,0,0.3,0c0.1,0,0.3,0,0.4-0.1c0.1-0.1,0.1-0.1,0.1-0.2c0-0.1-0.1-0.2-0.1-0.2   c-0.2-0.1-0.3-0.2-0.5-0.2c-0.3-0.1-0.6-0.2-0.9-0.3c-0.2-0.2-0.3-0.4-0.3-0.6c0-0.3,0.1-0.5,0.3-0.7c0.3-0.2,0.6-0.3,1-0.3   c0.2,0,0.5,0,0.7,0.1c0.2,0.1,0.4,0.1,0.5,0.2L244.2,170.9z"></path>
	<path class="st25" d="M466.1,164.2c0-0.8-0.7-1.5-1.5-1.5h-10.6c-0.8,0-1.5,0.7-1.5,1.5v15.2c0,0.8,0.7,1.5,1.5,1.5h6.1   c0.6,0,1.2-0.2,1.6-0.6l0,0l3.9-3.9l0,0c0.4-0.5,0.6-1,0.6-1.6v-10.6L466.1,164.2L466.1,164.2z M461.6,178.1v-1.9h1.8L461.6,178.1z    M464.4,175.4L464.4,175.4c-0.2,0.1-0.4,0.2-0.6,0.2h-3v3c0,0.2-0.1,0.4-0.2,0.6l0,0c-0.2,0.1-0.4,0.2-0.6,0.2h-6.1v-15.2h10.6   v10.6C464.6,175,464.6,175.2,464.4,175.4L464.4,175.4z"></path>
	<polygon class="st25" points="460,172.5 460,168 458.5,168 458.5,172.5 457,172.5 459.4,175.6 461.6,172.5  "></polygon>
	<path class="st25" d="M427.3,168.7v0.9h-2.6v1.6h2v0.8h-2v1.6h2.6v0.9h-3.7v-5.8L427.3,168.7L427.3,168.7z"></path>
	<path class="st25" d="M429.1,172.4l-1.3-2h1c0.1,0,0.1,0,0.2,0c0,0,0.1,0.1,0.1,0.1l0.9,1.4c0-0.1,0-0.1,0.1-0.1l0.1-0.1l0.7-1.1   c0,0,0.1-0.1,0.1-0.1c0,0,0.1,0,0.1,0h0.9l-1.4,2l1.4,2.2h-1c-0.1,0-0.1,0-0.2-0.1c-0.1,0-0.1-0.1-0.1-0.1l-0.9-1.4   c0,0.1-0.1,0.2-0.1,0.2l-0.8,1.2c0,0.1-0.1,0.1-0.1,0.1c-0.1,0-0.1,0.1-0.2,0.1h-0.9L429.1,172.4z"></path>
	<path class="st25" d="M432.5,175.9v-5.5h0.6c0.1,0,0.1,0,0.2,0.1c0.1,0,0.1,0.1,0.1,0.1l0.1,0.4c0.2-0.2,0.4-0.4,0.7-0.5   c0.2-0.1,0.5-0.2,0.8-0.2c0.2,0,0.4,0.1,0.6,0.1c0.2,0.1,0.3,0.3,0.5,0.4c0.1,0.2,0.3,0.4,0.3,0.7c0.1,0.3,0.1,0.6,0.1,0.9   c0,0.3,0,0.6-0.1,0.9c-0.1,0.2-0.2,0.5-0.4,0.7c-0.1,0.2-0.3,0.4-0.6,0.5c-0.2,0.1-0.5,0.2-0.7,0.2c-0.2,0-0.4,0-0.6-0.1   c-0.2-0.1-0.3-0.2-0.5-0.3v1.7L432.5,175.9L432.5,175.9z M434.4,171.1c-0.2,0-0.4,0-0.5,0.1c-0.2,0.1-0.3,0.2-0.4,0.4v1.9   c0.1,0.1,0.2,0.2,0.4,0.3c0.3,0.1,0.6,0.1,0.8,0c0.1-0.1,0.2-0.1,0.3-0.2c0.1-0.1,0.2-0.3,0.2-0.4c0.1-0.2,0.1-0.4,0.1-0.6   c0-0.2,0-0.4-0.1-0.6c0-0.1-0.1-0.3-0.2-0.4c-0.1-0.1-0.1-0.2-0.2-0.2C434.7,171.1,434.5,171.1,434.4,171.1z"></path>
	<path class="st25" d="M438.8,170.4c0.3,0,0.6,0.1,0.8,0.1c0.2,0.1,0.5,0.2,0.6,0.4c0.2,0.2,0.3,0.4,0.4,0.7c0.2,0.6,0.2,1.2,0,1.8   c-0.1,0.3-0.2,0.5-0.4,0.7c-0.2,0.2-0.4,0.3-0.6,0.4c-0.5,0.2-1.1,0.2-1.7,0c-0.5-0.2-0.9-0.6-1.1-1.1c-0.2-0.6-0.2-1.2,0-1.8   c0.1-0.3,0.2-0.5,0.4-0.7c0.2-0.2,0.4-0.3,0.6-0.4C438.3,170.4,438.5,170.4,438.8,170.4z M438.8,173.9c0.3,0,0.6-0.1,0.8-0.3   c0.2-0.3,0.3-0.6,0.2-1c0-0.4-0.1-0.7-0.2-1c-0.2-0.2-0.5-0.4-0.8-0.3c-0.3,0-0.6,0.1-0.8,0.4c-0.2,0.3-0.3,0.6-0.2,1   c0,0.4,0.1,0.7,0.2,1C438.3,173.8,438.5,173.9,438.8,173.9z"></path>
	<path class="st25" d="M441.7,174.6v-4.1h0.6c0.1,0,0.2,0,0.2,0.1c0.1,0.1,0.1,0.1,0.1,0.2l0.1,0.5c0.1-0.2,0.3-0.4,0.5-0.6   c0.2-0.1,0.4-0.2,0.7-0.2c0.2,0,0.3,0.1,0.5,0.1l-0.1,0.8c0,0,0,0.1-0.1,0.1c0,0-0.1,0-0.1,0c-0.1,0-0.1,0-0.2,0   c-0.1,0-0.2,0-0.3,0c-0.2,0-0.4,0.1-0.5,0.2c-0.2,0.1-0.3,0.3-0.4,0.5v2.6L441.7,174.6z"></path>
	<path class="st25" d="M446.3,174.6c-0.3,0-0.6-0.1-0.8-0.3c-0.2-0.2-0.3-0.5-0.3-0.8v-2.3h-0.4c-0.1,0-0.2-0.1-0.2-0.2v-0.4   l0.7-0.1l0.2-1.1c0-0.1,0-0.1,0.1-0.1s0.1-0.1,0.1-0.1h0.5v1.3h1.1v0.7h-1.1v2.2c0,0.1,0,0.2,0.1,0.3c0.1,0.1,0.2,0.1,0.2,0.1h0.2   l0.1-0.1l0.1-0.1h0.2c0,0,0.1,0,0.1,0.1l0.3,0.5c-0.1,0.1-0.3,0.2-0.5,0.3C446.7,174.6,446.5,174.6,446.3,174.6z"></path>
</g>
</svg>
